<?xml version="1.0" ?><!DOCTYPE svg  PUBLIC '-//W3C//DTD SVG 1.1//EN'  'http://www.w3.org/Graphics/SVG/1.1/DTD/svg11.dtd'><svg enable-background="new 0 0 128 128" height="128px" id="Layer_1" version="1.1" viewBox="0 0 128 128" width="128px" xml:space="preserve" xmlns="http://www.w3.org/2000/svg" xmlns:xlink="http://www.w3.org/1999/xlink"><path d="M33.3,37H11c-1.1,0-2-0.9-2-2s0.9-2,2-2h22.3c1.1,0,2,0.9,2,2S34.4,37,33.3,37z" fill="#2C3E50"/><path d="M62.3,49H27c-1.1,0-2-0.9-2-2s0.9-2,2-2h35.3c1.1,0,2,0.9,2,2S63.4,49,62.3,49z" fill="#2C3E50"/><path d="M91.3,60H37c-1.1,0-2-0.9-2-2s0.9-2,2-2h54.3c1.1,0,2,0.9,2,2S92.4,60,91.3,60z" fill="#2C3E50"/><path d="M90.3,72H68c-1.1,0-2-0.9-2-2s0.9-2,2-2h22.3c1.1,0,2,0.9,2,2S91.4,72,90.3,72z" fill="#2C3E50"/><path d="M107.3,83H49c-1.1,0-2-0.9-2-2s0.9-2,2-2h58.3c1.1,0,2,0.9,2,2S108.4,83,107.3,83z" fill="#2C3E50"/><path d="M116.3,94H91c-1.1,0-2-0.9-2-2s0.9-2,2-2h25.3c1.1,0,2,0.9,2,2S117.4,94,116.3,94z" fill="#2C3E50"/><rect fill="#3B97D3" height="14" width="2" x="97" y="96"/><rect fill="#3B97D3" height="12" width="2" x="28" y="19"/><path d="M112,105.9c0,3.3-2.7,6.1-6,6.1H21c-3.3,0-6-2.8-6-6.1V39h-4v66.9c0,5.5,4.5,10.1,10,10.1h85  c5.5,0,10-4.6,10-10.1V96h-4V105.9z" fill="#3B97D3"/><path d="M105,13H21c-5.5,0-10,4.4-10,9.9V31h4v-8.1c0-3.3,2.7-5.9,6-5.9h85c3.3,0,6,2.6,6,5.9V88h4V22.9  C116,17.4,110.5,13,105,13z" fill="#3B97D3"/><rect fill="#3B97D3" height="24" width="2" x="56" y="19"/><rect fill="#3B97D3" height="24" width="2" x="42" y="19"/><rect fill="#3B97D3" height="4" width="2" x="28" y="39"/><rect fill="#3B97D3" height="59" width="2" x="28" y="51"/><rect fill="#3B97D3" height="35" width="2" x="69" y="19"/><rect fill="#3B97D3" height="3" width="2" x="56" y="51"/><rect fill="#3B97D3" height="3" width="2" x="42" y="51"/><rect fill="#3B97D3" height="48" width="2" x="42" y="62"/><rect fill="#3B97D3" height="4" width="2" x="83" y="62"/><rect fill="#3B97D3" height="4" width="2" x="69" y="62"/><rect fill="#3B97D3" height="3" width="2" x="97" y="85"/><rect fill="#3B97D3" height="3" width="2" x="83" y="74"/><rect fill="#3B97D3" height="25" width="2" x="83" y="85"/><rect fill="#3B97D3" height="3" width="2" x="69" y="74"/><rect fill="#3B97D3" height="25" width="2" x="69" y="85"/><rect fill="#3B97D3" height="25" width="2" x="56" y="85"/><rect fill="#3B97D3" height="15" width="2" x="56" y="62"/><polygon fill="#3B97D3" points="83.2,40.2 85,38.4 85,19 83,19 83,40.1 "/><path d="M83.2,49.9c-0.1,0-0.2,0-0.2,0V54h2v-4.6C85,49.7,83.8,49.9,83.2,49.9z" fill="#3B97D3"/><path d="M99,26.8V19h-2v8.3C97,27,98,26.8,99,26.8z" fill="#3B97D3"/><polygon fill="#3B97D3" points="97,38.4 97,77 99,77 99,36.4 "/><path d="M100.1,29.3c-0.8-0.8-2-0.8-2.8,0L83.5,43.1L77,36.5c-0.8-0.8-2-0.8-2.8,0c-0.8,0.8-0.8,2,0,2.8l8,8  c0.4,0.4,0.9,0.6,1.4,0.6s1-0.2,1.4-0.6l15.2-15.2C100.9,31.4,100.9,30.1,100.1,29.3z" fill="#2C3E50"/></svg>