<?xml version="1.0" encoding="utf-8"?>
<!-- Generator: Adobe Illustrator 16.0.0, SVG Export Plug-In . SVG Version: 6.00 Build 0)  -->
<!DOCTYPE svg PUBLIC "-//W3C//DTD SVG 1.1//EN" "http://www.w3.org/Graphics/SVG/1.1/DTD/svg11.dtd">
<svg version="1.1" id="Layer_1" xmlns="http://www.w3.org/2000/svg" xmlns:xlink="http://www.w3.org/1999/xlink" x="0px" y="0px"
	 width="128px" height="128px" viewBox="0 0 128 128" enable-background="new 0 0 128 128" xml:space="preserve">
<path opacity="0.2" enable-background="new    " d="M-139.374-7c-6.518,0-12.777,1.091-18.626,3.074l4.952,8.914
	C-148.713,3.701-144.126,3-139.374,3c0.226,0,0.448,0.014,0.673,0.017c-2.833,0.042-5.606,0.327-8.299,0.838
	c22.206,4.214,39,23.713,39,47.145c0,9.585-2.82,18.506-7.661,26h16.626h1.374h10.13c3.932-7.822,6.157-16.648,6.157-26
	C-81.374,18.967-107.342-7-139.374-7z"/>
<path opacity="0.2" enable-background="new    " d="M-136.223,45.827c-1.684-0.991-3.626-1.136-5.348-0.573
	c0.435,0.145,0.86,0.332,1.271,0.573c3.112,1.832,4.147,5.84,2.315,8.95c-0.841,1.429-2.142,2.414-3.603,2.891
	c2.86,0.946,6.09-0.189,7.681-2.891C-132.073,51.667-133.109,47.659-136.223,45.827z"/>
<path fill="#FFFFFF" d="M-137.348,44.938c0.404,0.146,0.802,0.316,1.176,0.537c1.62,0.953,2.771,2.481,3.242,4.301
	c0.156,0.605,0.224,1.22,0.22,1.828l7.207-7.434L-115,33.339l-13.391,6.949L-137.348,44.938z"/>
<path fill="#EB1364" d="M-132.71,52.104c-0.063,0-0.128-0.013-0.188-0.037c-0.188-0.078-0.312-0.262-0.312-0.467
	c0.004-0.589-0.063-1.16-0.204-1.699c-0.438-1.689-1.507-3.108-3.012-3.994c-0.305-0.18-0.652-0.34-1.092-0.499
	c-0.188-0.068-0.315-0.239-0.328-0.438c-0.014-0.199,0.093-0.385,0.269-0.476l22.347-11.597c0.217-0.113,0.483-0.053,0.633,0.145
	c0.146,0.197,0.127,0.471-0.043,0.646l-17.711,18.263C-132.447,52.05-132.577,52.104-132.71,52.104z M-136.184,44.896
	c0.092,0.047,0.18,0.097,0.266,0.146c1.734,1.021,2.968,2.656,3.473,4.605c0.066,0.261,0.12,0.526,0.158,0.799l14.785-15.247
	L-136.184,44.896z"/>
<path d="M-128.227,16.987c0.057,0.021,0.113,0.03,0.17,0.03c0.205,0,0.396-0.126,0.471-0.329l2.736-7.518
	c0.095-0.259-0.039-0.546-0.299-0.641c-0.26-0.095-0.547,0.04-0.642,0.299l-2.735,7.518
	C-128.62,16.606-128.486,16.893-128.227,16.987z"/>
<path d="M-113.671,16.037l-5.144,6.128c-0.178,0.211-0.149,0.527,0.062,0.704c0.094,0.079,0.208,0.117,0.32,0.117
	c0.144,0,0.285-0.061,0.384-0.179l5.144-6.128c0.178-0.211,0.149-0.527-0.062-0.704C-113.178,15.798-113.493,15.825-113.671,16.037z
	"/>
<path d="M-166.963,63.566l-6.929,4c-0.239,0.139-0.321,0.443-0.183,0.684c0.093,0.16,0.261,0.25,0.434,0.25
	c0.085,0,0.171-0.021,0.25-0.066l6.929-4c0.239-0.139,0.321-0.443,0.183-0.684C-166.419,63.511-166.725,63.428-166.963,63.566z"/>
<path d="M-111.287,32.5c0.085,0,0.171-0.021,0.25-0.066l6.93-4c0.238-0.138,0.32-0.444,0.183-0.683
	c-0.138-0.241-0.443-0.321-0.683-0.183l-6.93,4c-0.238,0.139-0.32,0.443-0.184,0.684C-111.628,32.41-111.459,32.5-111.287,32.5z"/>
<path d="M-170.021,53.471c-0.048-0.271-0.307-0.461-0.579-0.406l-7.879,1.39c-0.272,0.048-0.454,0.307-0.405,0.579
	c0.042,0.242,0.253,0.412,0.492,0.412c0.029,0,0.058-0.002,0.087-0.008l7.879-1.389C-170.155,54.001-169.973,53.742-170.021,53.471z
	"/>
<path d="M-99.693,40.562l-7.88,1.39c-0.271,0.048-0.452,0.307-0.405,0.579c0.043,0.242,0.254,0.412,0.492,0.412
	c0.028,0,0.059-0.002,0.088-0.008l7.879-1.389c0.271-0.048,0.453-0.307,0.404-0.579C-99.163,40.695-99.428,40.508-99.693,40.562z"/>
<path d="M-178.479,41.546l7.879,1.39c0.029,0.006,0.059,0.008,0.087,0.008c0.238,0,0.449-0.17,0.492-0.412
	c0.048-0.272-0.133-0.531-0.405-0.579l-7.879-1.39c-0.271-0.056-0.532,0.133-0.579,0.404
	C-178.933,41.239-178.751,41.498-178.479,41.546z"/>
<path d="M-99.521,54.454l-7.879-1.39c-0.266-0.054-0.529,0.133-0.578,0.404c-0.049,0.272,0.133,0.531,0.404,0.579l7.879,1.39
	c0.029,0.006,0.059,0.008,0.088,0.008c0.237,0,0.448-0.17,0.491-0.412C-99.066,54.761-99.249,54.502-99.521,54.454z"/>
<path d="M-166.463,31.566l-6.928-4c-0.239-0.139-0.545-0.057-0.683,0.183c-0.138,0.239-0.056,0.545,0.183,0.683l6.928,4
	c0.079,0.047,0.165,0.067,0.25,0.067c0.173,0,0.341-0.09,0.434-0.25C-166.142,32.011-166.224,31.705-166.463,31.566z"/>
<path d="M-104.109,67.566l-6.928-4c-0.238-0.137-0.545-0.057-0.684,0.184c-0.139,0.239-0.057,0.545,0.184,0.684l6.928,4
	c0.08,0.045,0.166,0.066,0.25,0.066c0.172,0,0.342-0.09,0.434-0.25C-103.788,68.011-103.87,67.705-104.109,67.566z"/>
<path d="M-164.328,16.037c-0.176-0.211-0.492-0.239-0.704-0.062c-0.211,0.177-0.239,0.493-0.062,0.704l5.142,6.128
	c0.099,0.118,0.24,0.179,0.383,0.179c0.113,0,0.227-0.039,0.321-0.117c0.211-0.177,0.239-0.493,0.062-0.704L-164.328,16.037z"/>
<path d="M-150.414,16.688c0.074,0.203,0.266,0.329,0.47,0.329c0.057,0,0.115-0.01,0.171-0.03c0.26-0.094,0.394-0.381,0.299-0.641
	l-2.736-7.518c-0.094-0.259-0.382-0.394-0.641-0.299c-0.26,0.094-0.394,0.381-0.299,0.641L-150.414,16.688z"/>
<path d="M-139,15.5c0.276,0,0.5-0.224,0.5-0.5V7c0-0.276-0.224-0.5-0.5-0.5s-0.5,0.224-0.5,0.5v8
	C-139.5,15.276-139.276,15.5-139,15.5z"/>
<path d="M-139-7.5c-32.257,0-58.5,26.243-58.5,58.5c0,9.2,2.089,18.023,6.21,26.225l0.139,0.275h11.54h1.191h78.841h1.19h11.539
	l0.139-0.275C-82.59,69.023-80.5,60.2-80.5,51C-80.5,18.743-106.743-7.5-139-7.5z M-98.564,75.896
	c-0.125,0.201-0.246,0.403-0.375,0.604h-80.122c-0.143-0.223-0.28-0.448-0.418-0.673c-0.134-0.218-0.271-0.435-0.401-0.654
	c-0.159-0.269-0.311-0.541-0.465-0.813c-0.125-0.221-0.253-0.438-0.375-0.662c-0.149-0.272-0.291-0.551-0.434-0.825
	c-0.117-0.226-0.237-0.449-0.351-0.677c-0.14-0.278-0.271-0.562-0.406-0.844c-0.107-0.227-0.219-0.451-0.323-0.681
	c-0.131-0.286-0.253-0.577-0.378-0.866c-0.098-0.227-0.2-0.451-0.294-0.68c-0.122-0.294-0.235-0.591-0.35-0.887
	c-0.089-0.229-0.182-0.454-0.267-0.684c-0.111-0.299-0.213-0.601-0.318-0.9c-0.081-0.229-0.165-0.457-0.241-0.688
	c-0.101-0.304-0.193-0.609-0.288-0.915c-0.072-0.231-0.147-0.461-0.215-0.692c-0.091-0.312-0.174-0.625-0.258-0.938
	c-0.062-0.229-0.128-0.455-0.187-0.685c-0.08-0.313-0.15-0.629-0.224-0.943c-0.054-0.232-0.113-0.466-0.164-0.699
	c-0.068-0.314-0.127-0.634-0.189-0.949c-0.046-0.234-0.097-0.47-0.139-0.705c-0.058-0.322-0.107-0.648-0.158-0.976
	c-0.037-0.229-0.078-0.461-0.111-0.692c-0.047-0.328-0.085-0.658-0.125-0.989c-0.028-0.229-0.062-0.459-0.086-0.688
	c-0.038-0.348-0.064-0.697-0.094-1.047c-0.019-0.214-0.042-0.427-0.057-0.643c-0.028-0.385-0.044-0.771-0.063-1.158
	c-0.008-0.18-0.022-0.359-0.029-0.539c-0.021-0.568-0.031-1.139-0.031-1.707c0-26.191,21.309-47.5,47.5-47.5
	c26.191,0,47.5,21.309,47.5,47.5c0,0.568-0.012,1.139-0.029,1.705c-0.008,0.18-0.021,0.359-0.029,0.539
	c-0.019,0.387-0.034,0.773-0.062,1.158c-0.016,0.216-0.039,0.429-0.059,0.643c-0.028,0.35-0.057,0.699-0.094,1.047
	c-0.024,0.236-0.06,0.473-0.088,0.708c-0.039,0.323-0.076,0.647-0.121,0.97c-0.037,0.25-0.082,0.498-0.121,0.746
	c-0.049,0.308-0.095,0.614-0.148,0.92c-0.047,0.258-0.102,0.513-0.152,0.769c-0.058,0.295-0.111,0.592-0.177,0.886
	c-0.056,0.26-0.121,0.518-0.183,0.774c-0.066,0.288-0.131,0.577-0.204,0.864c-0.066,0.261-0.142,0.519-0.212,0.777
	c-0.077,0.282-0.15,0.564-0.232,0.846c-0.077,0.263-0.162,0.521-0.242,0.781c-0.087,0.275-0.169,0.553-0.26,0.825
	c-0.087,0.261-0.182,0.519-0.271,0.776c-0.097,0.271-0.188,0.543-0.287,0.812c-0.098,0.258-0.2,0.514-0.303,0.771
	c-0.104,0.266-0.205,0.533-0.313,0.797c-0.106,0.259-0.222,0.515-0.334,0.771c-0.112,0.259-0.222,0.519-0.339,0.774
	c-0.117,0.259-0.243,0.514-0.365,0.771c-0.12,0.25-0.237,0.504-0.362,0.752c-0.128,0.256-0.263,0.508-0.396,0.762
	c-0.129,0.246-0.256,0.494-0.389,0.738c-0.138,0.254-0.283,0.502-0.426,0.754c-0.137,0.24-0.271,0.482-0.412,0.722
	C-98.259,75.407-98.413,75.65-98.564,75.896z M-87.467,76.5h-10.286c0.076-0.123,0.147-0.25,0.224-0.374
	c0.141-0.229,0.277-0.462,0.413-0.694c0.152-0.261,0.304-0.521,0.449-0.785c0.133-0.236,0.263-0.474,0.392-0.711
	c0.143-0.265,0.281-0.529,0.418-0.797c0.125-0.24,0.246-0.481,0.366-0.725c0.134-0.268,0.261-0.538,0.39-0.809
	c0.115-0.244,0.229-0.489,0.34-0.735c0.123-0.272,0.24-0.545,0.357-0.819c0.106-0.248,0.213-0.496,0.314-0.746
	c0.113-0.277,0.221-0.555,0.328-0.832c0.098-0.252,0.195-0.502,0.287-0.756c0.104-0.279,0.201-0.562,0.3-0.846
	c0.088-0.253,0.177-0.505,0.26-0.76c0.095-0.286,0.183-0.573,0.271-0.861c0.078-0.254,0.158-0.507,0.231-0.762
	c0.085-0.291,0.163-0.584,0.241-0.877c0.068-0.256,0.14-0.51,0.204-0.766c0.073-0.297,0.143-0.596,0.211-0.894
	c0.06-0.254,0.12-0.509,0.175-0.765c0.064-0.303,0.123-0.606,0.184-0.912c0.049-0.252,0.101-0.504,0.146-0.758
	c0.056-0.312,0.103-0.625,0.151-0.938c0.039-0.248,0.082-0.496,0.117-0.745c0.047-0.323,0.084-0.647,0.123-0.974
	c0.028-0.24,0.062-0.48,0.088-0.723c0.037-0.341,0.062-0.683,0.092-1.023c0.02-0.227,0.043-0.453,0.06-0.682
	c0.026-0.382,0.044-0.764,0.062-1.146c0.01-0.188,0.023-0.378,0.029-0.567c0.021-0.572,0.031-1.146,0.031-1.722
	c0-26.743-21.757-48.5-48.5-48.5S-187.5,24.257-187.5,51c0,0.575,0.011,1.148,0.031,1.723c0.007,0.188,0.021,0.379,0.03,0.568
	c0.018,0.382,0.035,0.764,0.062,1.145c0.016,0.229,0.04,0.459,0.06,0.688c0.029,0.339,0.055,0.678,0.091,1.015
	c0.026,0.247,0.06,0.493,0.09,0.739c0.039,0.319,0.076,0.64,0.121,0.956c0.036,0.254,0.079,0.506,0.119,0.758
	c0.049,0.309,0.096,0.618,0.15,0.926c0.046,0.258,0.099,0.517,0.149,0.773c0.058,0.299,0.115,0.598,0.178,0.895
	c0.056,0.263,0.119,0.522,0.179,0.783c0.068,0.291,0.134,0.583,0.207,0.873c0.066,0.264,0.139,0.524,0.209,0.786
	c0.077,0.285,0.153,0.57,0.235,0.854c0.076,0.263,0.158,0.523,0.238,0.785c0.086,0.279,0.172,0.56,0.263,0.838
	c0.085,0.262,0.176,0.521,0.267,0.779c0.096,0.276,0.192,0.553,0.292,0.827c0.095,0.259,0.195,0.517,0.295,0.772
	c0.104,0.271,0.21,0.541,0.32,0.811c0.105,0.258,0.214,0.514,0.324,0.77c0.114,0.268,0.229,0.533,0.349,0.799
	c0.113,0.253,0.23,0.503,0.348,0.754c0.125,0.265,0.251,0.527,0.381,0.791c0.122,0.246,0.247,0.492,0.373,0.738
	c0.135,0.263,0.272,0.523,0.413,0.785c0.129,0.239,0.262,0.479,0.395,0.719c0.146,0.261,0.295,0.521,0.447,0.779
	c0.136,0.233,0.274,0.467,0.415,0.697c0.076,0.124,0.146,0.25,0.223,0.373h-10.288c-3.959-7.982-5.966-16.561-5.966-25.5
	c0-31.706,25.794-57.5,57.5-57.5S-81.5,19.294-81.5,51C-81.5,59.939-83.508,68.518-87.467,76.5z"/>
<path d="M-136.172,45.475c-0.374-0.221-0.771-0.391-1.176-0.537c-0.766-0.278-1.571-0.438-2.389-0.438
	c-2.484,0-4.811,1.329-6.071,3.468c-0.954,1.62-1.22,3.515-0.749,5.334c0.471,1.819,1.623,3.347,3.242,4.302
	c1.083,0.638,2.316,0.975,3.565,0.975c2.484,0,4.811-1.329,6.07-3.469c0.637-1.08,0.959-2.284,0.969-3.506
	c0.004-0.608-0.062-1.223-0.221-1.828C-133.4,47.956-134.552,46.428-136.172,45.475z M-134.54,54.602
	c-1.081,1.836-3.077,2.977-5.209,2.977c-1.071,0-2.129-0.289-3.058-0.836c-1.39-0.818-2.378-2.129-2.782-3.69
	c-0.404-1.561-0.176-3.186,0.642-4.575c1.082-1.834,3.078-2.976,5.209-2.976c0.367,0,0.729,0.046,1.088,0.112
	c0.69,0.128,1.358,0.363,1.968,0.724c1.392,0.817,2.379,2.129,2.783,3.69c0.234,0.91,0.25,1.841,0.063,2.733
	C-133.967,53.4-134.198,54.021-134.54,54.602z"/>
<path d="M-155.5,73.5h8v-6h-8V73.5z M-154.5,68.5h6v4h-6V68.5z"/>
<path d="M-143.5,73.5h8v-6h-8V73.5z M-142.5,68.5h6v4h-6V68.5z"/>
<path d="M-131.5,73.5h8v-6h-8V73.5z M-130.5,68.5h6v4h-6V68.5z"/>
<path fill="#FFFFFF" d="M-77.536-10.712c-0.022-0.059-2.415-5.841-9.306-5.841h-6.18c-0.397-2.483-3.416-4.947-7.769-4.947
	c-4.349,0-9.065,2.026-11.635,4.947h-19.542l-9.697-8.62c-0.293-0.524-2.012-1.327-12.125-1.327c-0.276,0-0.5,0.224-0.5,0.5v13.5
	h-4.5c-0.276,0-0.5,0.224-0.5,0.5v8.105c0,0.276,0.224,0.5,0.5,0.5h4.5v4.236c0,0.202,0.121,0.385,0.309,0.462
	c0.063,0.026,0.127,0.038,0.191,0.038c0.13,0,0.258-0.051,0.354-0.146L-149.24-3h15.951V7.158c0,0.176,0.094,0.34,0.244,0.43
	c0.079,0.047,0.167,0.07,0.256,0.07c0.082,0,0.164-0.02,0.239-0.061L-113.07-3h26.229c0,0,5.171-0.008,7.9-4.58
	c0.557-0.78,1.049-1.689,1.416-2.788C-77.488-10.48-77.492-10.602-77.536-10.712z"/>
<g>
	<path opacity="0.2" fill="#EB1364" enable-background="new    " d="M-78.88-11.145c-0.161-0.225-0.341-0.461-0.552-0.706
		C-82.245-8.015-86.842-8-86.842-8h-17.038l-6.628,3.605h23.665c0.254-0.001,6.185-0.09,8.307-6.109
		C-78.602-10.645-78.719-10.872-78.88-11.145z"/>
	<path opacity="0.2" fill="#EB1364" enable-background="new    " d="M-144.594-7.646l-3.252,3.252h14.557V-8h-11.158
		C-144.447-7.872-144.496-7.744-144.594-7.646z"/>
	<path opacity="0.2" fill="#EB1364" enable-background="new    " d="M-94.1-16.794c-0.135-0.319-0.278-0.613-0.43-0.887
		c-1.006-1.53-3.3-2.819-6.261-2.819c-0.067,0-0.137,0.011-0.205,0.012l-1.573,3.936h8.525
		C-94.061-16.633-94.074-16.714-94.1-16.794z"/>
</g>
<path fill="#EB1364" d="M-77.536-10.712c-0.022-0.059-2.415-5.841-9.306-5.841h-6.18c-0.397-2.483-3.416-4.947-7.769-4.947
	c-4.349,0-9.065,2.026-11.635,4.947h-19.542l-9.698-8.62c-0.292-0.524-2.011-1.327-12.124-1.327c-0.276,0-0.5,0.224-0.5,0.5v13.5
	h-4.5c-0.276,0-0.5,0.224-0.5,0.5v8.105c0,0.276,0.224,0.5,0.5,0.5h4.5v4.236c0,0.202,0.122,0.385,0.309,0.462
	c0.062,0.026,0.127,0.038,0.191,0.038c0.13,0,0.258-0.051,0.354-0.146L-149.24-3h15.951V7.158c0,0.176,0.094,0.34,0.244,0.43
	c0.079,0.047,0.167,0.07,0.256,0.07c0.082,0,0.164-0.02,0.239-0.061L-113.07-3h26.229c0,0,5.171-0.008,7.9-4.58
	c0.557-0.78,1.049-1.689,1.416-2.788C-77.488-10.48-77.492-10.602-77.536-10.712z M-154.289-8v3.605h-4V-11.5h4V-8z
	 M-100.994-20.488c0.068-0.001,0.139-0.012,0.205-0.012c2.961,0,5.255,1.29,6.26,2.819c0.189,0.29,0.338,0.587,0.43,0.887
	c0.025,0.08,0.041,0.161,0.059,0.241h-8.525h-8.478C-108.604-18.87-104.68-20.432-100.994-20.488z M-86.843-4.395h-23.665L-103.88-8
	l1.804-0.981c0.242-0.132,0.332-0.436,0.2-0.678c-0.132-0.244-0.437-0.332-0.679-0.2l-0.807,0.439L-105.975-8l-6.627,3.605
	l-0.918,0.5l-0.92,0.5L-115.164-3l-17.125,9.316V-3v-0.395v-0.5v-0.5V-8v-1.421c0-0.276-0.225-0.5-0.5-0.5s-0.5,0.224-0.5,0.5V-8
	v3.605h-14.557l3.252-3.252c0.098-0.098,0.146-0.226,0.146-0.354s-0.049-0.256-0.146-0.354c-0.195-0.195-0.512-0.195-0.707,0
	L-145.654-8l-3.605,3.605l-0.5,0.5l-0.5,0.5L-150.654-3l-2.635,2.635V-3v-0.395v-0.5v-0.5V-8v-4v-13.5
	c8.911,0.025,10.512,0.713,10.759,0.868c0.025,0.041,0.057,0.079,0.093,0.111l9.947,8.842c0.092,0.082,0.211,0.126,0.332,0.126
	h45.315c4.762,0,7.094,2.944,7.962,4.408c0.16,0.272,0.277,0.5,0.344,0.641C-80.658-4.485-86.589-4.396-86.843-4.395z"/>
<path fill="#EB1364" d="M-170.842-9.5H-162c0.276,0,0.5-0.224,0.5-0.5s-0.224-0.5-0.5-0.5h-8.842c-0.276,0-0.5,0.224-0.5,0.5
	S-171.118-9.5-170.842-9.5z"/>
<path fill="#EB1364" d="M-161.5-7c0-0.276-0.224-0.5-0.5-0.5h-18.789c-0.276,0-0.5,0.224-0.5,0.5s0.224,0.5,0.5,0.5H-162
	C-161.724-6.5-161.5-6.724-161.5-7z"/>
<path fill="#EB1364" d="M-161.789-4.5h-10c-0.276,0-0.5,0.224-0.5,0.5s0.224,0.5,0.5,0.5h10c0.276,0,0.5-0.224,0.5-0.5
	S-161.513-4.5-161.789-4.5z"/>
<text transform="matrix(1 0 0 1 -151.1665 -13.1665)" fill="#EB1364" font-family="'Poppins-Regular'" font-size="12">M</text>
<path id="Shape_40_" opacity="0.2" fill="#EB1364" enable-background="new    " d="M55.515-100.736c-2.91,0-5.271,2.36-5.271,5.271
	v14.759c0,2.911,2.36,5.271,5.271,5.271h6.325c-2.91,0-5.271-2.361-5.271-5.271v-14.759c0-2.911,2.36-5.271,5.271-5.271H55.515
	L55.515-100.736z"/>
<g id="Group_3_" transform="translate(88.000000, 0.000000)">
	<path id="Shape_39_" fill="#EB1364" d="M-23.261-71.482v-2.108h-23.192v2.108H-23.261L-23.261-71.482z M-23.788-73.063v1.055
		h-22.138v-1.055H-23.788L-23.788-73.063z"/>
	<path id="Shape_38_" fill="#EB1364" d="M-52.063-69.278l-1.32,6.312l9.858-2.191h21.056c3.052,0,5.534-2.482,5.534-5.535v-4.48
		h5.506l9.858,2.191l-1.32-6.312c0.125-0.471,0.188-0.946,0.188-1.414v-14.759c0-3.052-2.482-5.535-5.535-5.535h-24.247
		c-3.052,0-5.534,2.482-5.534,5.535v4.48h-8.697c-3.052,0-5.535,2.482-5.535,5.535v14.759
		C-52.252-70.225-52.188-69.749-52.063-69.278L-52.063-69.278z M-3.434-79.31l1.179,5.637l-9.146-2.026h-5.535h-0.526h-5.799h-0.527
		h-8.697c-1.153,0-2.215-0.396-3.062-1.054c-0.207-0.161-0.4-0.337-0.579-0.527c-0.43-0.456-0.774-0.99-1.01-1.581
		c-0.068-0.171-0.125-0.348-0.175-0.527c-0.092-0.339-0.149-0.691-0.168-1.054c-0.004-0.088-0.013-0.174-0.013-0.264v-0.263v-9.488
		v-0.527v-4.48c0-2.761,2.246-5.007,5.007-5.007h24.247c2.762,0,5.008,2.247,5.008,5.007v14.758c0,0.44-0.062,0.89-0.187,1.335
		L-3.434-79.31L-3.434-79.31z M-36.351-76.753c0.442,0.432,0.957,0.788,1.523,1.054h-11.099v-1.054H-36.351L-36.351-76.753z
		 M-38.006-80.443c0.018,0.362,0.067,0.714,0.151,1.054h-8.071v-1.054H-38.006L-38.006-80.443z M-22.47-65.684l-21.142,0.006
		l-9.089,2.02l1.18-5.637l-0.018-0.062c-0.124-0.446-0.187-0.895-0.187-1.335V-85.45c0-2.761,2.246-5.008,5.008-5.008h8.697v9.488
		h-8.434v2.108h8.757c0.204,0.576,0.5,1.11,0.873,1.581h-9.63v2.108h13.968h9.225h5.799v4.48
		C-17.462-67.93-19.709-65.684-22.47-65.684L-22.47-65.684z"/>
	<path id="Shape_37_" fill="#EB1364" d="M-19.57-94.675v2.108h11.596v-2.108H-19.57L-19.57-94.675z M-19.044-93.093v-1.054h10.542
		v1.054H-19.044L-19.044-93.093z"/>
	<path id="Shape_36_" fill="#EB1364" d="M-18.396-88.35h0.631h9.79v-2.108h-12.153h-2.342h-8.697v2.108H-18.396L-18.396-88.35z
		 M-8.502-88.876h-9.63h-0.696H-30.64v-1.054h10.393h1.014h10.731V-88.876L-8.502-88.876z"/>
	<path id="Shape_35_" fill="#EB1364" d="M-17.462-84.66h0.526h8.961v-2.108h-9.126h-0.544h-13.522v1.582v0.527h7.379h0.527H-17.462
		L-17.462-84.66z M-8.502-85.187h-8.434h-0.527h-5.798h-7.38v-1.055h13.109h0.533h8.496V-85.187L-8.502-85.187z"/>
	<path id="Shape_34_" fill="#EB1364" d="M-17.462-80.97h0.526h8.961v-2.108h-8.961h-0.526h-5.799h-7.906v2.108h7.906H-17.462
		L-17.462-80.97z M-8.502-81.497h-8.434h-0.526H-30.64v-1.054h13.178h0.526h8.434V-81.497L-8.502-81.497z"/>
</g>
<g id="Group_2_" transform="translate(33.000000, 5.000000)" opacity="0.2">
	<rect id="Rectangle-path_27_" x="79.442" y="-41.43" fill="#231F20" width="3.163" height="20.031"/>
	<path id="Shape_33_" fill="#231F20" d="M-32.305-67.257l2.109,1.581l2.635,1.582h4.744h3.689v-3.062
		c0.603,0.099,1.217,0.163,1.846,0.163c0.814,0,1.606-0.089,2.372-0.252c-5.12-1.091-8.961-5.635-8.961-11.08v-11.069l2.635,0.527
		h2.636l2.108,0.527l2.636,1.054c0,0,2.636,0.527,2.636,1.054c0,0.527,2.108,1.054,2.108,1.054l3.162,2.108l1.055,1.582
		c0,0,0.527-0.527,0.527-1.054c0-0.527,0-3.163-10.542-7.38c-4.815-1.926-7.134-3.31-8.236-4.246
		c-1.312-1.114-0.901-1.596-0.901-1.596c0-1.426,1.359-3.39,2.721-4.998c1.362-1.611,2.727-2.865,2.727-2.865h-1.581l-3.163,1.581
		l-1.581,1.054l-1.581,1.582l-1.581,2.636l-0.527,1.581v2.108l0.28,0.421c-0.179,0.798-0.28,1.626-0.28,2.479v11.86
		c0,4.48,2.606,8.342,6.38,10.181l-0.582-0.166v1.581c0,0-1.581,0.527-4.744-1.054c-4.447-2.224-3.689-3.163-3.689-3.163
		c1.055-2.636,1.186-8.226,1.186-8.226l-0.658,0.847l-1.055,1.581l-1.054,2.108l-1.055,1.582v2.636l0.527,1.581L-32.305-67.257
		L-32.305-67.257z"/>
	<path id="Shape_32_" fill="#231F20" d="M-0.184-69.893c-3.689,4.217-12.091,3.163-12.091,3.163v2.636l3.69,0.527
		C-1.337-65.364-0.184-69.893-0.184-69.893L-0.184-69.893z"/>
	<path id="Shape_31_" fill="#231F20" d="M-36.521-49.336c-0.526,8.961,0,0.527,0,0.527v5.271v22.665h3.69v-22.665
		c0,0-1.582-11.07,4.744-14.76l-2.108-2.635C-30.195-60.932-35.994-58.297-36.521-49.336L-36.521-49.336z"/>
	<rect id="Rectangle-path_26_" x="-7.53" y="-44.064" fill="#231F20" width="3.69" height="22.666"/>
	<path id="Shape_30_" fill="#231F20" d="M49.631-49.336v5.271h-0.233v22.666h3.689v-22.666h0.234c0,0-1.265-14.564,12.161-16.303
		l0.782,0.489v-5.256c0,0-0.375-0.081-0.877-0.229c1.029,0.308,2.119,0.479,3.249,0.479c0.359,0,0.714-0.021,1.063-0.054
		c0.046-0.004,0.092-0.006,0.138-0.011c0.307-0.032,0.609-0.083,0.908-0.139c0.087-0.017,0.175-0.03,0.261-0.049
		c0.001,0,0.002,0,0.002,0l0,0c-5.119-1.091-8.961-5.635-8.961-11.08v-8.434h-1.374c-1.466,0-2.736-0.98-3.37-2.412
		c-0.274-0.619-0.431-1.322-0.431-2.068c0-1.373,0.525-2.598,1.352-3.419c0.563-0.561,1.266-0.935,2.038-1.033
		c-0.083-0.421-0.132-0.858-0.132-1.308c0-0.238,0.016-0.471,0.039-0.701c0.228-2.193,1.498-4.002,3.212-4.721
		c-0.235-0.098-0.479-0.176-0.729-0.233c-0.028-0.006-0.056-0.014-0.084-0.02c-0.094-0.02-0.189-0.033-0.284-0.046
		c-0.158-0.019-0.317-0.036-0.479-0.037c-0.013,0-0.025-0.002-0.038-0.002c-0.003,0-0.005,0-0.007,0c-2.7,0-4.888,2.579-4.888,5.76
		c0,0.45,0.048,0.886,0.132,1.308c-1.907,0.241-3.391,2.142-3.391,4.453c0,2.43,1.643,4.403,3.69,4.473v8.441
		c0,3.876,1.948,7.294,4.916,9.337c-0.11-0.073-0.173-0.117-0.173-0.117v4.287l-0.526-0.33c0,0-11.363,4.216-11.891,13.177
		C49.104-40.902,49.631-49.336,49.631-49.336L49.631-49.336z M62.8-66.518c-0.077-0.046-0.148-0.089-0.215-0.13
		C62.655-66.604,62.729-66.562,62.8-66.518L62.8-66.518z M64.156-65.806c-0.229-0.101-0.447-0.21-0.657-0.32
		c0.232,0.119,0.466,0.238,0.708,0.341C64.19-65.792,64.174-65.798,64.156-65.806L64.156-65.806z M64.254-65.766
		c0.298,0.125,0.604,0.235,0.915,0.334C64.879-65.523,64.562-65.635,64.254-65.766L64.254-65.766z"/>
	<path id="Shape_29_" fill="#231F20" d="M67.962-99.909c0.532-0.982,1.313-1.75,2.235-2.205c0.089-0.043,0.176-0.087,0.266-0.125
		c-0.513-0.216-1.065-0.335-1.642-0.335c-0.08,0-0.157,0.011-0.235,0.015c-1.357,0.078-2.564,0.806-3.41,1.928
		c0.128-0.012,0.256-0.022,0.387-0.022C66.436-100.653,67.252-100.381,67.962-99.909L67.962-99.909z"/>
</g>
<g id="Oval_3_" transform="translate(213.000000, 40.000000)">
	<circle fill="#231F20" cx="-193.329" cy="-117.017" r="1.054"/>
	<circle fill="#231F20" cx="-201.235" cy="-117.017" r="1.054"/>
</g>
<path id="Shape_28_" fill="#231F20" d="M120.086-16.398h0.264h0.264v-25.829c0-7.688-5.427-14.131-12.651-15.706v-3.31
	c3.171-2.072,5.271-5.65,5.271-9.712v-1.188c1.065-0.338,1.845-1.325,1.845-2.501s-0.779-2.163-1.845-2.502v-2.197
	c2.001-0.12,3.599-2.05,3.599-4.413c0-2.016-1.139-3.741-2.79-4.265c-0.444-3.387-2.95-5.919-5.893-5.919
	c-0.622,0-1.239,0.117-1.838,0.347c-0.752-2.348-2.657-3.905-4.819-3.905c-1.688,0-3.244,0.952-4.211,2.56
	c-0.714-0.419-1.505-0.639-2.307-0.639c-2.84,0-5.15,2.703-5.15,6.023c0,0.358,0.029,0.724,0.088,1.093
	c-1.927,0.397-3.347,2.351-3.347,4.668c0,2.428,1.354,4.129,3.409,4.394v0.011h0.066v2.162c-1.202,0.245-2.108,1.31-2.108,2.583
	s0.906,2.337,2.108,2.582v1.107c0,3.833,1.869,7.235,4.744,9.348v3.673c-7.225,1.575-12.651,8.018-12.651,15.706v25.829h0.264h0.264
	v-25.829c0-7.406,5.207-13.616,12.15-15.171c0.017,0.034,0.04,0.064,0.07,0.089c0.134,0.11,3.321,2.695,6.566,2.695
	c3.197,0,6.291-2.589,6.421-2.698c0.027-0.023,0.05-0.054,0.065-0.086c6.944,1.555,12.151,7.764,12.151,15.171v5.534h-7.38v-1.317
	h-0.526v21.612h0.526v-19.768h7.38V-16.398L120.086-16.398z M95.312-58.038v-3.205c1.82,1.189,3.993,1.884,6.325,1.884
	c2.111,0,4.091-0.57,5.798-1.56v2.881v0.267v0.132c-0.036,0.029-0.086,0.067-0.144,0.111c-0.771,0.592-3.322,2.386-5.843,2.386
	c-2.566,0-5.19-1.794-5.987-2.388c-0.06-0.044-0.11-0.083-0.149-0.112v-0.13V-58.038L95.312-58.038z M116.305-83.755
	c0,2.149-1.271,3.84-3.071,3.84H90.079c-1.814-0.215-2.987-1.701-2.987-3.878c0-2.161,1.359-3.963,3.16-4.191l0.281-0.035
	l-0.056-0.277c-0.084-0.424-0.126-0.847-0.126-1.256c0-3.031,2.073-5.497,4.623-5.497c0.787,0,1.566,0.242,2.253,0.7l0.24,0.16
	l0.138-0.253c0.858-1.583,2.312-2.527,3.887-2.527c1.994,0,3.752,1.509,4.384,3.76v0.371l0.371-0.155
	c0.617-0.277,1.257-0.417,1.902-0.417c2.725,0,5.04,2.418,5.39,5.625l0.02,0.181l0.176,0.046
	C115.224-87.173,116.305-85.573,116.305-83.755L116.305-83.755z M112.706-70.955c0,3.752-1.88,7.068-4.744,9.071
	c-0.087,0.061-0.174,0.122-0.263,0.18c-0.086,0.057-0.177,0.106-0.264,0.16c-1.689,1.045-3.671,1.658-5.799,1.658
	c-2.352,0-4.53-0.743-6.325-1.998c-0.09-0.063-0.175-0.132-0.264-0.197c-0.088-0.065-0.177-0.129-0.263-0.197
	c-2.564-2.029-4.218-5.161-4.218-8.677v-1.054v-0.264v-0.264c-0.183,0-0.358-0.031-0.526-0.075
	c-0.907-0.236-1.582-1.054-1.582-2.034s0.675-1.798,1.582-2.034c0.168-0.043,0.344-0.075,0.526-0.075v-0.264v-0.264v-2.108h22.139
	v2.135c-0.088-0.009-0.173-0.027-0.264-0.027c-0.145,0-0.263,0.118-0.263,0.264s0.118,0.264,0.263,0.264
	c0.091,0,0.177,0.016,0.264,0.027c0.184,0.023,0.361,0.063,0.527,0.13c0.771,0.314,1.317,1.069,1.317,1.952
	s-0.546,1.638-1.317,1.951c-0.166,0.068-0.344,0.107-0.527,0.13c-0.087,0.012-0.173,0.027-0.264,0.027
	c-0.145,0-0.263,0.118-0.263,0.264s0.118,0.264,0.263,0.264c0.091,0,0.176-0.018,0.264-0.027V-70.955L112.706-70.955z"/>
<path id="Shape_27_" fill="#231F20" d="M106.381-74.908c1.163,0,2.108,0.946,2.108,2.108h0.527c0-1.453-1.183-2.635-2.636-2.635
	s-2.636,1.182-2.636,2.635h0.527C104.272-73.962,105.218-74.908,106.381-74.908L106.381-74.908z"/>
<path id="Shape_26_" fill="#231F20" d="M96.893-74.908c1.163,0,2.109,0.946,2.109,2.108h0.526c0-1.453-1.183-2.635-2.636-2.635
	s-2.635,1.182-2.635,2.635h0.527C94.785-73.962,95.73-74.908,96.893-74.908L96.893-74.908z"/>
<path id="Shape_25_" fill="#231F20" d="M104.272-68.056v-0.264h-5.271v0.264c0,1.048,0.619,1.947,1.507,2.372
	c0.344,0.165,0.724,0.264,1.128,0.264c0.405,0,0.785-0.099,1.129-0.264C103.653-66.108,104.272-67.008,104.272-68.056
	L104.272-68.056z M99.545-67.792h4.184c-0.129,1.038-1.019,1.845-2.092,1.845S99.675-66.754,99.545-67.792L99.545-67.792z"/>
<rect id="Rectangle-path_25_" x="91.095" y="-38.011" fill="#231F20" width="0.527" height="21.612"/>
<path id="Shape_24_" fill="#231F20" d="M15.719-67.792c1.379,0,2.635-1.131,2.635-2.372v-0.264h-5.271v0.264
	C13.083-68.923,14.339-67.792,15.719-67.792L15.719-67.792z M13.636-69.9h4.165c-0.158,0.792-0.996,1.581-2.082,1.581
	C14.632-68.319,13.794-69.108,13.636-69.9L13.636-69.9z"/>
<path id="Shape_7_" fill="#231F20" d="M-3.784-43.809v27.673h-13.969v0.527H133v-0.527H34.694v-27.673
	c0-6.605-4.007-12.291-9.716-14.762c3.986-1.142,6.577-2.895,7.708-5.238c1.451-3.004-0.068-5.809-0.134-5.927l-0.033-0.047
	c-1.618-1.821-2.604-3.889-3.206-5.731c0.063-0.229,0.109-0.464,0.109-0.712c0-0.354-0.073-0.692-0.2-1.002
	c0.222-0.468,0.123-1.247-0.312-2.43c0.312-0.982,2.734-9.452-3.79-15.474c-0.11-0.132-3.293-3.76-9.666-3.76
	c-6.389,0-10.193,5.33-10.231,5.383c-0.045,0.066-0.628,0.927-1.021,2.121c-0.257,0.146-0.451,0.335-0.576,0.571
	c-2.046,3.836-1.653,6.862-1.272,9.789c0.113,0.881,0.225,1.75,0.276,2.632c-0.689,0.476-1.144,1.27-1.144,2.168
	c0,0.736,0.305,1.4,0.792,1.879c-0.322,1.253-0.88,2.59-1.806,4.073c-1.488,2.381-1.938,4.48-1.337,6.238
	c0.718,2.101,2.682,2.963,3.007,3.093c0.249,0.2,1.653,1.262,4.22,2.196C0.424-56.383-3.784-50.58-3.784-43.809L-3.784-43.809z
	 M0.919-69.995c0.901-1.441,1.466-2.764,1.808-4.004c0.406,0.255,0.882,0.409,1.396,0.409v0.264c0,4.283,2.336,8.028,5.799,10.036
	v3.581c-0.946,0.14-1.864,0.367-2.75,0.666c-3.104-1.029-4.698-2.311-4.725-2.333l-0.077-0.044
	c-0.021-0.007-2.053-0.784-2.735-2.791C-0.912-65.812-0.479-67.758,0.919-69.995L0.919-69.995z M26.788-74.118
	c-0.146,0-0.264,0.119-0.264,0.264s0.118,0.264,0.264,0.264v0.264c0,4.196-2.348,7.855-5.799,9.731
	c-0.085,0.046-0.177,0.083-0.264,0.127c-0.087,0.044-0.175,0.085-0.264,0.127c-1.439,0.688-3.044,1.083-4.743,1.083
	c-1.907,0-3.703-0.485-5.271-1.338c-0.091-0.049-0.175-0.109-0.264-0.16c-0.089-0.052-0.176-0.106-0.264-0.161
	c-3.156-1.952-5.271-5.435-5.271-9.411v-11.859c0-0.475,0.04-0.938,0.099-1.397c0.851,1.116,2.293,1.938,4.317,2.443l0.053,0.008
	c0.119,0.005,11.985,0.593,17.67,6.696c0.022,0.024,0.047,0.047,0.069,0.071l0.048,0.042c0.036,0.024,0.194,0.125,0.409,0.236
	c0.303,0.155,0.721,0.327,1.101,0.333c0.007,0,0.013,0.001,0.02,0.001c0.147,0,0.264-0.031,0.363-0.072
	c0.058,0.191,0.099,0.39,0.099,0.599c0,0.252-0.053,0.491-0.134,0.715c-0.235,0.647-0.774,1.144-1.448,1.318
	C27.146-74.148,26.971-74.118,26.788-74.118L26.788-74.118z M2.014-76.226c0-0.592,0.248-1.127,0.642-1.51
	C2.807-77.882,2.981-78,3.17-78.097c0.287-0.147,0.608-0.238,0.952-0.238v4.217c-0.474,0-0.906-0.162-1.258-0.426
	c-0.168-0.125-0.315-0.273-0.44-0.442C2.17-75.335,2.014-75.761,2.014-76.226L2.014-76.226z M4.133-87.676
	c0.052,0.134,0.119,0.261,0.183,0.389c-0.125,0.682-0.194,1.383-0.194,2.101v6.325c-0.347,0-0.678,0.071-0.981,0.194
	c-0.057-0.826-0.161-1.63-0.265-2.427c-0.374-2.88-0.721-5.607,1.04-9.122C3.79-89.409,3.812-88.53,4.133-87.676L4.133-87.676z
	 M24.743-94.766c6.279,5.798,3.984,13.935,3.674,14.924c-0.019,0.06-0.031,0.097-0.032,0.102l-0.033,0.09l0.034,0.089
	c0.034,0.091,0.058,0.167,0.087,0.25c0.234,0.669,0.321,1.119,0.334,1.41c0.008,0.178-0.009,0.298-0.033,0.38h-0.001
	c-0.017,0.054-0.034,0.096-0.052,0.121c-0.022,0.032-0.062,0.069-0.132,0.094c-0.04,0.014-0.087,0.024-0.154,0.024
	c-0.047,0-0.097-0.005-0.146-0.013c-0.338-0.052-0.743-0.259-0.974-0.396c-0.035-0.021-0.065-0.041-0.092-0.057
	c-0.14-0.153-0.288-0.299-0.435-0.445c-5.82-5.751-16.981-6.433-17.619-6.467c-2.162-0.544-3.604-1.452-4.304-2.699
	c-0.091-0.162-0.172-0.329-0.237-0.503c-0.043-0.113-0.073-0.229-0.105-0.344c-0.262-0.963-0.132-1.961,0.121-2.811
	c0.064-0.215,0.137-0.418,0.212-0.611c0.359-0.927,0.791-1.567,0.801-1.58c0.036-0.05,3.69-5.157,9.799-5.157
	C21.574-98.364,24.711-94.802,24.743-94.766L24.743-94.766z M32.21-64.032c-1.127,2.327-3.826,4.049-8.034,5.138
	c-1.019-0.376-2.084-0.651-3.187-0.815v-3.294c3.751-1.923,6.325-5.827,6.325-10.324v-0.317c0.709-0.145,1.31-0.577,1.688-1.166
	c0.63,1.751,1.599,3.655,3.101,5.352C32.243-69.186,33.477-66.648,32.21-64.032L32.21-64.032z M-3.258-16.136v-22.665h7.38v22.665
	H-3.258L-3.258-16.136z M-3.258-39.328v-4.48c0-4.976,2.353-9.411,6.001-12.259c0.902,1.365,5.5,7.778,12.185,7.778
	c7.442,0,12.301-7.954,12.349-8.035l-0.452-0.271c-0.047,0.078-4.755,7.779-11.897,7.779c-6.474,0-10.948-6.328-11.764-7.568
	c1.209-0.881,2.549-1.59,3.983-2.095c0.302-0.106,0.607-0.202,0.918-0.29c0.771-0.218,1.567-0.378,2.383-0.476v-0.266v-0.111v-0.154
	v-0.9v-2.327c1.583,0.812,3.374,1.272,5.271,1.272c1.689,0,3.294-0.366,4.743-1.019v2.973c-0.029-0.003-0.058-0.008-0.087-0.011
	v0.166v0.1v0.266c0.978,0.11,1.93,0.309,2.845,0.593c0.31,0.096,0.615,0.205,0.917,0.32c5.856,2.232,10.03,7.904,10.03,14.535
	v27.673H4.649v-23.983H4.122v0.791H-3.258L-3.258-39.328z"/>
<rect id="Rectangle-path_22_" x="25.206" y="-40.646" fill="#231F20" width="0.527" height="24.248"/>
<rect id="Rectangle-path_21_" x="25.997" y="-39.328" fill="#231F20" width="7.906" height="0.527"/>
<rect id="Rectangle-path_20_" x="82.925" y="-36.166" fill="#231F20" width="7.906" height="0.527"/>
<path id="Shape_6_" fill="#231F20" d="M102.076-49.344c-3.923,0-7.115,3.193-7.115,7.116c0,3.924,3.192,7.116,7.115,7.116
	c3.924,0,7.116-3.192,7.116-7.116C109.192-46.15,106-49.344,102.076-49.344L102.076-49.344z M102.076-35.639
	c-3.633,0-6.588-2.955-6.588-6.589c0-3.633,2.955-6.589,6.588-6.589c3.634,0,6.59,2.956,6.59,6.589
	C108.666-38.594,105.71-35.639,102.076-35.639L102.076-35.639z"/>
<text transform="matrix(1 0 0 1 98.4746 -39.9434)" fill="#EB1364" font-family="'Poppins-Regular'" font-size="8.4337">M</text>
<g>
	<g>
		<path d="M342.67,41.954l-0.044-0.47l-0.472,0.017c-0.006,0-1.43,0.049-3.829,0.049c-8.228,0-28.786-0.586-41.964-6.012
			l-0.189-0.078l-0.189,0.078c-13.178,5.426-33.733,6.012-41.963,6.012l0,0c-2.398,0-3.824-0.049-3.83-0.049l-0.472-0.017
			l-0.044,0.47c-0.018,0.188-1.701,19.088,3.135,41.774c4.469,20.967,15.571,49.557,43.1,66.695l0.265,0.165l0.265-0.165
			c27.527-17.139,38.631-45.729,43.101-66.695C344.371,61.042,342.688,42.142,342.67,41.954z M338.559,83.521
			c-4.414,20.707-15.351,48.916-42.387,65.889c-27.027-16.967-37.965-45.162-42.38-65.861c-4.388-20.57-3.382-38-3.159-41.036
			c0.61,0.015,1.782,0.036,3.387,0.036l0,0c8.25,0,28.806-0.588,42.152-6.009c13.35,5.421,33.906,6.009,42.153,6.009
			c1.604,0,2.774-0.021,3.386-0.036C341.936,45.546,342.939,62.956,338.559,83.521z"/>
		<path d="M336.923,47.545l-0.487-0.004c-9.394-0.087-27.093-0.929-40.095-5.586l-0.169-0.061l-0.169,0.061
			c-13.009,4.659-30.704,5.5-40.095,5.586l-0.487,0.004l-0.008,0.487c-0.261,15.588,1.888,68.522,40.476,95.202l0.283,0.197
			l0.284-0.197c38.591-26.685,40.735-79.614,40.476-95.202L336.923,47.545z M296.172,142.215
			c-37.514-26.189-39.97-77.67-39.766-93.679c11.464-0.131,27.474-1.22,39.766-5.58c12.286,4.358,28.299,5.447,39.766,5.58
			C336.143,64.544,333.688,116.021,296.172,142.215z"/>
	</g>
	<path opacity="0.2" enable-background="new    " d="M314.172,41c0,0,5,0,4,6c0,0,8,42-22,95v9c0,0,32-22,39-52s8-36,7-56
		C342.172,43,319.172,42,314.172,41z"/>
	<path opacity="0.2" fill="#EB1364" enable-background="new    " d="M309.5,72c-1-12-12-14-12-14c3,3,0,6,0,6c6,3,7,8,7,8v31h11V72
		H309.5z"/>
	<g>
		<path fill="#EB1364" d="M314,72h-4c0-7.995-6.505-14.5-14.5-14.5S281,64.005,281,72h-5c-1.379,0-2.5,1.122-2.5,2.5v27
			c0,1.379,1.121,2.5,2.5,2.5h38c1.379,0,2.5-1.121,2.5-2.5v-27C316.5,73.122,315.379,72,314,72z M295.5,58.5
			c7.443,0,13.5,6.057,13.5,13.5h-5c0-4.688-3.812-8.5-8.5-8.5S287,67.312,287,72h-5C282,64.557,288.057,58.5,295.5,58.5z M303,72
			h-15c0-4.136,3.363-7.5,7.5-7.5S303,67.864,303,72z M315.5,101.5c0,0.827-0.673,1.5-1.5,1.5h-38c-0.827,0-1.5-0.673-1.5-1.5v-27
			c0-0.827,0.673-1.5,1.5-1.5h38c0.827,0,1.5,0.673,1.5,1.5V101.5z"/>
		<path fill="#EB1364" d="M295.262,79.227c-2.75,0-4.904,2.196-4.904,5c0,1.629,0.17,3.168,2.144,4.097V96h5v-7.675
			c1.72-0.794,2.522-2.104,2.522-4.099C300.023,81.376,297.977,79.227,295.262,79.227z M296.812,87.532l-0.312,0.126V95h-3v-7.342
			l-0.312-0.126c-1.703-0.683-1.83-1.752-1.83-3.306c0-2.242,1.716-4,3.904-4c2.146,0,3.762,1.721,3.762,4
			C299.023,85.922,298.361,86.91,296.812,87.532z"/>
	</g>
</g>
<g>
	<g>
		<polygon opacity="0.2" enable-background="new    " points="88.783,74.346 89.893,75.454 90.178,75.74 90.881,72.248 
			90.456,72.671 		"/>
		<path opacity="0.2" enable-background="new    " d="M85.865,71.429l2.31,2.309l2.592-2.59l0.421-0.423l0.966-4.783
			c-0.146,0.232-0.302,0.463-0.472,0.69C90.379,68.391,88.381,70.017,85.865,71.429z"/>
		<polygon opacity="0.2" enable-background="new    " points="79.663,98.058 72.368,90.762 69.125,94.005 68.765,102.968 
			71.759,105.962 		"/>
		<path opacity="0.2" enable-background="new    " d="M79.663,82.249l-6.468-6.466c-1.097,0.206-2.222,0.384-3.365,0.526
			l-0.411,10.289l2.947,2.947L79.663,82.249z"/>
		<path opacity="0.2" enable-background="new    " d="M92.335,63.306l-0.07,0.339c0.026-0.087,0.054-0.174,0.077-0.262
			c0.003-0.018,0.011-0.038,0.017-0.054l-0.005-0.004L92.335,63.306z"/>
		<polygon opacity="0.2" enable-background="new    " points="88.175,74.953 80.879,82.249 87.228,88.598 87.524,88.894 
			89.974,76.751 89.688,76.467 		"/>
		<polygon opacity="0.2" enable-background="new    " points="69.375,87.768 69.175,92.738 71.76,90.153 		"/>
		<path opacity="0.2" enable-background="new    " d="M80.879,98.058l3.134,3.134l0.286,0.286c-0.182,0.213-0.379,0.42-0.591,0.628
			l-0.288-0.287l-3.148-3.15l-7.905,7.903l0.05,0.05l0.357,0.359c-0.332,0.068-0.668,0.131-1.01,0.194
			c-0.003,0-0.006,0.001-0.01,0.002c-0.474,0.087-0.952,0.163-1.442,0.233l0.506-0.506l0.333-0.333l-2.432-2.432l-0.123,3.057
			l-0.018,0.43l-0.01,0.269c0,0,7.324-0.564,12.851-3.516c1.302-0.694,2.503-1.521,3.486-2.504l0.111-0.554l0.272-1.344l1.598-7.931
			l-0.451,0.451L80.879,98.058z"/>
		<path opacity="0.2" enable-background="new    " d="M87.566,74.346l-2.489-2.492c-3.045,1.59-6.759,2.877-10.862,3.731
			l6.057,6.057L87.566,74.346z"/>
		<polygon opacity="0.2" enable-background="new    " points="80.271,82.857 72.976,90.153 80.271,97.45 86.745,90.976 
			87.194,90.525 87.32,89.906 87.021,89.607 		"/>
		<path opacity="0.2" enable-background="new    " d="M94.016,55.305l-1.071,5.1l-0.398,1.897l0.012,0.013l0.08,0.078
			c0.069-0.06,0.157-0.089,0.252-0.096l1.527-7.581C94.292,54.912,94.158,55.108,94.016,55.305z"/>
		<path opacity="0.2" enable-background="new    " d="M42.012,51.517c-0.013,0.008-0.026,0.016-0.039,0.024
			c-0.708,0.426-1.346,0.875-1.911,1.344c-0.871,0.725-1.566,1.493-2.055,2.299c-0.161,0.265-0.296,0.533-0.411,0.805
			c-0.283,0.659-0.438,1.338-0.438,2.035c0,0.067-0.018,0.129-0.046,0.186c-0.067,0.138-0.204,0.234-0.367,0.24
			c0.44,0.301,0.903,0.595,1.391,0.878c0.254,0.148,0.511,0.295,0.777,0.438c1.324,0.712,2.799,1.365,4.407,1.947
			c0.594,0.216,1.206,0.42,1.833,0.617c1.447,0.454,2.979,0.856,4.591,1.199c0.333,0.073,0.672,0.14,1.012,0.205
			c3.559,0.688,7.454,1.094,11.547,1.157c0.368,0.004,0.735,0.012,1.106,0.012v-0.123v-0.307V52.02v-0.187v-0.014V46.95
			c-0.286-0.005-0.571-0.013-0.859-0.013C54.116,46.939,46.631,48.745,42.012,51.517z"/>
		<path opacity="0.2" enable-background="new    " d="M31.595,50.715c0,0.078,0.011,0.156,0.015,0.235
			c0.004,0.141,0.008,0.282,0.022,0.421c0.001,0.005,0,0.01,0.001,0.016c0,0.004,0,0.008,0,0.013c0,0.002,0,0.004,0,0.007
			c0.04,0.373,0.121,0.742,0.225,1.108c0.003,0.012,0.006,0.022,0.01,0.034c0.152,0.524,0.364,1.04,0.642,1.546
			c0.055,0.099,0.111,0.2,0.17,0.299c0.808,1.344,2.043,2.61,3.645,3.765c-0.014-0.044-0.028-0.086-0.028-0.133
			c0-0.126,0.014-0.251,0.021-0.377c0.054-0.785,0.273-1.55,0.646-2.29c0.13-0.258,0.277-0.518,0.444-0.771
			c0.334-0.506,0.744-0.997,1.217-1.472c0.554-0.555,1.195-1.087,1.919-1.595c0.013-0.008,0.023-0.016,0.035-0.024
			c4.693-3.259,12.785-5.417,21.969-5.417c0.289,0,0.574,0.006,0.86,0.011v-9.133v-0.43C45.839,36.528,31.595,42.88,31.595,50.715z"
			/>
	</g>
	<path d="M63.409,36.098c-17.78,0-32.244,6.557-32.244,14.617c0,0.194,0.027,0.384,0.042,0.575c-0.009,0.053-0.01,0.109,0,0.166
		l0.021,0.099l0.206,1.021l2.025,9.987c0,0.004,0,0.008,0,0.012c0.001,0.012,0.005,0.024,0.009,0.034l7.155,35.316
		c0,5.832,10.008,10.4,22.786,10.4c7.405,0,13.878-1.537,18.01-3.945c1.557-0.908,2.779-1.938,3.598-3.058
		c0.759-1.038,1.172-2.15,1.17-3.312l6.974-34.346c0.073-0.28,0.133-0.56,0.171-0.843l2.124-10.465c0.004-0.011-0.001-0.022,0-0.033
		c0.128-0.527,0.198-1.062,0.198-1.604C95.653,42.655,81.189,36.098,63.409,36.098z M35.053,66.104
		c1.386,2.044,3.56,4.003,6.442,5.674l-1.959,1.96l-3.683-3.684L35.053,66.104z M79.663,82.249l-7.295,7.297l-2.948-2.947
		l-4.957-4.959l5.324-5.324c0.016-0.001,0.03-0.004,0.045-0.006c1.145-0.143,2.267-0.32,3.365-0.526L79.663,82.249z M74.213,75.585
		c4.103-0.854,7.817-2.142,10.862-3.731l2.491,2.492l-7.295,7.294L74.213,75.585z M71.76,90.153l-2.585,2.585l-5.32,5.319
		l-7.903-7.902l7.904-7.904l5.518,5.52L71.76,90.153z M63.855,81.033l-4.381-4.381c1.072,0.061,2.169,0.098,3.297,0.098
		c1.914,0,3.803-0.1,5.649-0.281L63.855,81.033z M63.248,81.642l-7.904,7.904l-7.296-7.296l6.171-6.17
		c1.269,0.205,2.584,0.372,3.951,0.483L63.248,81.642z M47.439,81.643l-7.296-7.297l2.132-2.131
		c2.977,1.601,6.643,2.893,10.908,3.684L47.439,81.643z M36.159,71.58l2.769,2.766l-1.835,1.837L36.159,71.58z M37.296,77.191
		l2.239-2.238l7.297,7.296l-7.079,7.079L37.296,77.191z M39.958,90.34l7.481-7.481l7.295,7.295l-7.903,7.902l-6.66-6.657
		L39.958,90.34z M41.476,97.84l-0.996-4.917l5.744,5.743l-2.974,2.975C42.11,100.476,41.478,99.191,41.476,97.84z M43.879,102.225
		l2.952-2.952l7.287,7.288C49.707,105.655,46.096,104.127,43.879,102.225z M47.439,98.666l7.904-7.902l7.903,7.902l-7.902,7.903
		L47.439,98.666z M70.817,106.903c-0.725,0.113-1.465,0.208-2.222,0.289c-1.663,0.177-3.399,0.272-5.187,0.272
		c-2.526,0-4.951-0.189-7.212-0.533l7.658-7.658l4.863,4.865l2.432,2.432L70.817,106.903z M68.765,102.968l-4.302-4.302l4.662-4.661
		l3.243-3.243l7.295,7.294l-7.904,7.904L68.765,102.968z M72.416,106.619l-0.05-0.049l7.905-7.904l3.148,3.149
		C81.228,103.942,77.296,105.657,72.416,106.619z M85.335,97.924c0,1.146-0.467,2.248-1.322,3.266l-3.134-3.134l5.557-5.555
		L85.335,97.924z M86.745,90.976l-6.474,6.473l-7.294-7.295l7.294-7.296l6.751,6.752L86.745,90.976z M87.228,88.598l-6.349-6.349
		l7.296-7.296l1.512,1.515L87.228,88.598z M89.893,75.454l-1.109-1.108l1.673-1.675L89.893,75.454z M90.765,71.147l-2.59,2.59
		l-2.312-2.309c2.516-1.412,4.512-3.038,5.817-4.798L90.765,71.147z M92.944,60.407l-0.387,1.907l-0.012-0.013l-0.211,1.004
		l0.017,0.018l-0.012,0.056c-0.022,0.088-0.05,0.174-0.078,0.264c-0.772,2.478-3.277,5.003-7.065,7.115
		c-0.259,0.143-0.519,0.286-0.79,0.427c-2.992,1.549-6.697,2.839-10.917,3.674c-0.34,0.065-0.681,0.13-1.024,0.191
		c-0.553,0.098-1.114,0.188-1.682,0.271c-0.305,0.044-0.607,0.087-0.915,0.126c-0.161,0.019-0.32,0.038-0.483,0.056
		c-2.112,0.247-4.322,0.387-6.613,0.387c-1.455,0-2.861-0.057-4.219-0.163c-0.451-0.033-0.896-0.073-1.335-0.118
		c-0.768-0.079-1.517-0.173-2.251-0.279c-0.354-0.054-0.705-0.107-1.05-0.165c-4.329-0.737-8.034-1.997-11.026-3.565
		c-0.267-0.143-0.528-0.285-0.785-0.432c-3.7-2.096-6.195-4.676-7.311-7.281c-0.128-0.294-0.242-0.591-0.333-0.884
		c-0.063-0.206-0.117-0.41-0.162-0.615v-0.001c-0.024-0.107-0.087-0.192-0.17-0.251l-1.397-6.925c0.05,0.07,0.104,0.139,0.156,0.207
		c1.148,1.527,2.835,2.942,4.964,4.194c0.252,0.149,0.509,0.298,0.773,0.442c1.582,0.861,3.377,1.637,5.348,2.315
		c0.58,0.198,1.177,0.386,1.788,0.569c1.163,0.345,2.373,0.663,3.633,0.94c0.333,0.071,0.671,0.139,1.007,0.205
		c3.787,0.762,7.955,1.202,12.335,1.239c0.224,0.004,0.447,0.01,0.671,0.01c0.115,0,0.229-0.004,0.343-0.004
		c0.069,0,0.135-0.002,0.204-0.003c0.342-0.003,0.688-0.007,1.026-0.013c1.811-0.039,3.58-0.148,5.303-0.318
		c2.399-0.238,4.701-0.596,6.87-1.061c0.335-0.071,0.662-0.147,0.989-0.226c1.474-0.343,2.881-0.737,4.211-1.175
		c0.65-0.213,1.28-0.442,1.891-0.676c1.657-0.638,3.169-1.349,4.513-2.125c0.261-0.151,0.515-0.303,0.761-0.456
		c1.89-1.18,3.396-2.492,4.444-3.902c0.018-0.022,0.035-0.048,0.051-0.069L92.944,60.407z M37.112,58.21
		c0.028-0.057,0.046-0.119,0.046-0.186c0-0.696,0.154-1.376,0.438-2.036c0.115-0.271,0.25-0.54,0.411-0.804
		c0.489-0.807,1.185-1.576,2.055-2.299c0.565-0.469,1.204-0.919,1.911-1.345c0.013-0.008,0.026-0.017,0.039-0.023
		c4.619-2.772,12.104-4.578,20.538-4.578c0.288,0,0.573,0.006,0.859,0.012c7.379,0.131,13.756,1.919,18.153,4.409
		c0.421,0.238,0.818,0.482,1.203,0.733c0.002,0.002,0.005,0.003,0.009,0.005c0.988,0.645,1.852,1.328,2.576,2.032
		c1.056,1.029,1.811,2.105,2.224,3.184c0.002,0.008,0.007,0.017,0.01,0.023c0.115,0.309,0.203,0.615,0.263,0.921
		c0.039,0.211,0.065,0.425,0.077,0.636c0.006,0.091,0.019,0.184,0.019,0.273c0,0.036,0.012,0.067,0.02,0.101
		c-0.699,0.384-1.443,0.754-2.232,1.103c-0.653,0.29-1.336,0.565-2.045,0.83c-1.898,0.706-3.99,1.315-6.234,1.81
		c-0.332,0.074-0.666,0.144-1.005,0.212c-1.87,0.375-3.838,0.673-5.883,0.883c-1.524,0.157-3.093,0.264-4.693,0.318
		c-0.414,0.015-0.828,0.024-1.246,0.031c-0.406,0.011-0.807,0.017-1.214,0.017c-0.105,0-0.207-0.003-0.311-0.003
		c-0.411-0.001-0.821-0.005-1.229-0.014c-3.798-0.082-7.422-0.46-10.752-1.085c-0.342-0.063-0.679-0.13-1.015-0.198
		c-1.985-0.412-3.857-0.906-5.589-1.482c-0.655-0.218-1.288-0.447-1.9-0.686c-1.22-0.475-2.358-0.986-3.398-1.538
		c-0.268-0.14-0.526-0.287-0.779-0.435C37.97,58.766,37.531,58.492,37.112,58.21z M94.785,50.865
		c-0.012,0.441-0.065,0.877-0.168,1.307c-0.002,0.007-0.007,0.016-0.008,0.023c-0.005,0.022-0.014,0.043-0.02,0.065
		c-0.21,0.824-0.589,1.625-1.117,2.399c-1.002,1.463-2.546,2.825-4.53,4.04c-0.054,0.033-0.106,0.067-0.162,0.101
		c-0.007-0.093-0.005-0.187-0.016-0.28c-0.035-0.331-0.107-0.659-0.198-0.984c-0.083-0.304-0.182-0.606-0.309-0.905
		c-0.423-0.985-1.09-1.934-1.954-2.835c-0.557-0.581-1.198-1.141-1.916-1.676c-0.002-0.002-0.003-0.004-0.006-0.005
		c-0.375-0.279-0.769-0.551-1.182-0.814c-4.723-3.02-11.946-5.068-19.791-5.21c-0.286-0.005-0.572-0.011-0.859-0.011
		c-9.184,0-17.276,2.158-21.969,5.417c-0.012,0.009-0.023,0.016-0.035,0.024c-0.725,0.507-1.367,1.04-1.918,1.595
		c-0.474,0.475-0.883,0.967-1.218,1.472c-0.168,0.254-0.314,0.511-0.444,0.771c-0.374,0.739-0.591,1.505-0.646,2.29
		c-1.495-1.12-2.641-2.336-3.37-3.626c-0.284-0.499-0.499-1.01-0.653-1.528c-0.106-0.36-0.19-0.723-0.231-1.089
		c-0.001-0.009,0-0.02-0.002-0.028c-0.001-0.016-0.001-0.032-0.002-0.047c-0.02-0.201-0.036-0.407-0.036-0.614
		c0-7.585,14.08-13.757,31.384-13.757c17.305,0,31.385,6.172,31.385,13.757C94.794,50.765,94.786,50.815,94.785,50.865z"/>
</g>
<g>
	<rect x="49.652" y="10.733" fill="#FFFFFF" width="28.374" height="44.711"/>
	<g>
		<path fill="#EB1364" d="M49.223,10.303v45.571h29.233V10.303H49.223z M77.596,50.435c-2.345,0.216-4.19,2.183-4.214,4.579H55.045
			c-0.218-2.362-2.208-4.217-4.626-4.217c-0.14,0-0.26,0.071-0.337,0.175V15.59c0.078,0.104,0.197,0.175,0.337,0.175
			c2.546,0,4.62-2.06,4.644-4.602H73.4c0.205,2.22,1.977,3.992,4.195,4.196V50.435z M77.596,14.477
			c-1.74-0.2-3.113-1.573-3.312-3.314h3.312V14.477z M54.202,11.162c-0.024,2.067-1.709,3.743-3.783,3.743
			c-0.14,0-0.26,0.07-0.337,0.174v-3.917H54.202z M50.082,51.481c0.078,0.104,0.197,0.175,0.337,0.175
			c1.941,0,3.528,1.475,3.744,3.358h-4.082V51.481z M74.244,55.014c0.023-1.92,1.486-3.483,3.352-3.697v3.697H74.244z"/>
		<path fill="#EB1364" d="M65.615,29.593c-3.616,0-2.828,5.409-3.745,5.409c-0.248,0-0.437-0.161-0.437-0.744
			c0-0.918,0.321-2.012,0.963-2.857l-2.084-1.575c-0.699,0.86-1.123,1.896-1.284,3.062H57.63v1.866h1.384
			c0.277,2.142,1.691,3.235,3.164,3.235c3.833,0,2.885-5.422,3.819-5.422c0.379,0,0.524,0.524,0.524,1.078
			c0,1.312-0.554,2.405-1.253,3.134l2.187,1.531c0.787-0.86,1.342-1.997,1.487-3.556h1.341v-1.866h-1.341
			C68.677,30.817,67.498,29.593,65.615,29.593z"/>
		<path fill="#EB1364" d="M63.458,23.572c-5.736,0-10.401,4.666-10.401,10.399c0,5.735,4.666,10.4,10.401,10.4
			c5.733,0,10.397-4.665,10.397-10.4C73.855,28.237,69.191,23.572,63.458,23.572z M63.458,43.511c-5.262,0-9.542-4.279-9.542-9.54
			c0-5.259,4.28-9.54,9.542-9.54c5.258,0,9.538,4.28,9.538,9.54C72.996,39.232,68.716,43.511,63.458,43.511z"/>
		<path fill="#EB1364" d="M64.269,8.583c0.239,0,0.431-0.192,0.431-0.43V2.994c0-0.237-0.191-0.43-0.431-0.43
			c-0.237,0-0.429,0.193-0.429,0.43v5.159C63.839,8.391,64.032,8.583,64.269,8.583z"/>
		<path fill="#EB1364" d="M67.708,8.583c0.236,0,0.43-0.192,0.43-0.43v-2.58c0-0.237-0.193-0.429-0.43-0.429s-0.43,0.192-0.43,0.429
			v2.58C67.278,8.391,67.472,8.583,67.708,8.583z"/>
		<path fill="#EB1364" d="M60.83,8.583c0.237,0,0.43-0.192,0.43-0.43v-1.72c0-0.237-0.193-0.43-0.43-0.43
			c-0.238,0-0.43,0.192-0.43,0.43v1.72C60.4,8.391,60.592,8.583,60.83,8.583z"/>
	</g>
</g>
</svg>
