<?xml version="1.0" encoding="utf-8"?>
<!-- Generator: Adobe Illustrator 17.0.0, SVG Export Plug-In . SVG Version: 6.00 Build 0)  -->
<!DOCTYPE svg PUBLIC "-//W3C//DTD SVG 1.1//EN" "http://www.w3.org/Graphics/SVG/1.1/DTD/svg11.dtd">
<svg version="1.1" id="Capa_1" xmlns="http://www.w3.org/2000/svg" xmlns:xlink="http://www.w3.org/1999/xlink" x="0px" y="0px"
	 width="127.559px" height="127.559px" viewBox="2687.833 4829.129 127.559 127.559"
	 enable-background="new 2687.833 4829.129 127.559 127.559" xml:space="preserve">
<path fill="#EECC2F" d="M2741.087,4851.182c-3.777,0-3.873,5.665-3.873,5.665s0.424,33.797-3.777,54.762c0,0-9.442,0-18.884,0
	s1.888,22.66-11.33,22.66h47.117c13.219,0,1.888-22.66,11.33-22.66c9.442,0-1.888,15.107,11.33,15.107
	c10.908,0,11.54-58.838,11.424-75.471L2741.087,4851.182z"/>
<g>
	
		<line fill="none" stroke="#000000" stroke-width="3" stroke-linejoin="round" stroke-miterlimit="10" x1="2733.438" y1="4910.99" x2="2761.671" y2="4910.99"/>
	
		<line fill="none" stroke="#000000" stroke-width="3" stroke-linejoin="round" stroke-miterlimit="10" x1="2773.001" y1="4926.097" x2="2757.285" y2="4926.097"/>
	
		<line fill="none" stroke="#000000" stroke-width="3" stroke-linecap="round" stroke-linejoin="round" stroke-miterlimit="10" x1="2748.544" y1="4865.669" x2="2756.098" y2="4865.669"/>
	
		<line fill="none" stroke="#000000" stroke-width="3" stroke-linecap="round" stroke-linejoin="round" stroke-miterlimit="10" x1="2752.321" y1="4873.223" x2="2773.093" y2="4873.223"/>
	
		<line fill="none" stroke="#000000" stroke-width="3" stroke-linecap="round" stroke-linejoin="round" stroke-miterlimit="10" x1="2746.656" y1="4880.776" x2="2771.205" y2="4880.776"/>
	
		<line fill="none" stroke="#000000" stroke-width="3" stroke-linecap="round" stroke-linejoin="round" stroke-miterlimit="10" x1="2746.656" y1="4888.33" x2="2773.093" y2="4888.33"/>
	
		<line fill="none" stroke="#000000" stroke-width="3" stroke-linecap="round" stroke-linejoin="round" stroke-miterlimit="10" x1="2746.656" y1="4895.883" x2="2769.316" y2="4895.883"/>
	
		<line fill="none" stroke="#000000" stroke-width="3" stroke-linecap="round" stroke-linejoin="round" stroke-miterlimit="10" x1="2744.768" y1="4903.437" x2="2771.205" y2="4903.437"/>
	
		<line fill="none" stroke="#000000" stroke-width="3" stroke-linejoin="round" stroke-miterlimit="10" x1="2741.087" y1="4850.562" x2="2788.2" y2="4850.562"/>
	<path fill="none" stroke="#000000" stroke-width="3" stroke-linejoin="round" stroke-miterlimit="10" d="M2741.087,4850.562
		c-3.777,0-3.873,5.665-3.873,5.665s0.424,33.796-3.777,54.762c0,0-9.442,0-18.884,0c-9.442,0,1.888,22.66-11.33,22.66h47.117
		c13.218,0,1.888-22.66,11.33-22.66c9.442,0-1.888,15.107,11.33,15.107s11.33-69.869,11.33-69.869s0.092-5.665,3.869-5.665
		c3.777,0,3.777,11.33,3.777,11.33h-7.553"/>
</g>
</svg>
