<?xml version="1.0" encoding="utf-8"?>
<!-- Generator: Adobe Illustrator 21.1.0, SVG Export Plug-In . SVG Version: 6.00 Build 0)  -->
<svg version="1.1" id="Warstwa_1" xmlns="http://www.w3.org/2000/svg" xmlns:xlink="http://www.w3.org/1999/xlink" x="0px" y="0px"
	 width="128px" height="128px" viewBox="0 0 128 128" style="enable-background:new 0 0 128 128;" xml:space="preserve">
<style type="text/css">
	.st0{fill:#6EA000;}
</style>
<g id="PROWADNICE">
	<g>
		<path class="st0" d="M64,3C30.4,3,3,30.4,3,64s27.4,61,61,61c10.7,0,21.3-2.8,30.5-8.1c1.1-0.7,1.5-2.1,0.9-3.2
			c-0.7-1.1-2.1-1.5-3.2-0.9c-8.5,4.9-18.2,7.5-28.1,7.5C33,120.3,7.7,95,7.7,64S33,7.7,64,7.7S120.3,33,120.3,64
			c0,10-2.7,19.9-7.7,28.5c-0.7,1.1-0.3,2.6,0.8,3.2c1.1,0.7,2.6,0.3,3.2-0.8c5.5-9.3,8.4-20,8.4-30.9C125,30.4,97.6,3,64,3z"/>
		<path class="st0" d="M39.1,93.6h49.7c1.3,0,2.4-1.1,2.4-2.4C91.2,76.2,79,64,64,64c-12.6,0-23.2,8.5-26.3,20.1h5
			c3-8.9,11.4-15.4,21.3-15.4c11.6,0,21.2,8.8,22.4,20.1H50.7h-9.1h-4.8c-0.1,0.8-0.1,1.6-0.1,2.4C36.8,92.6,37.8,93.6,39.1,93.6z"
			/>
		<path class="st0" d="M81.2,42.1c0-9.5-7.7-17.2-17.2-17.2s-17.2,7.7-17.2,17.2S54.5,59.3,64,59.3S81.2,51.6,81.2,42.1z M51.6,42.1
			c0-6.9,5.6-12.4,12.4-12.4s12.4,5.6,12.4,12.4S70.9,54.5,64,54.5S51.6,48.9,51.6,42.1z"/>
	</g>
</g>
</svg>
