<?xml version="1.0" encoding="utf-8"?><!DOCTYPE svg PUBLIC "-//W3C//DTD SVG 1.1//EN" "http://www.w3.org/Graphics/SVG/1.1/DTD/svg11.dtd">
<svg version="1.1" xmlns="http://www.w3.org/2000/svg" xmlns:xlink="http://www.w3.org/1999/xlink" x="0px" y="0px" width="128px"
	 height="128px" viewBox="0 0 128 128" enable-background="new 0 0 128 128" xml:space="preserve">
<g id="L">
	<g>
		<polygon fill="#728394" points="20.1,83.5 26.5,110.5 10.8,114.5 4,87.7 		"/>
		<path fill="#90A6BB" d="M52.6,112.5c3.1,1.5,5.7,2.8,7.2,3.1c19.8,3,41.6-15.9,53.2-26.1c2.4-2.1,4.5-3.9,6-5.1
			c3-2.3,5.1-5,4.8-6.2c-0.1-0.6-1.2-1.1-2.7-1.4c-5-0.9-10.2,2.6-14.9,5.7c-1.2,0.8-2.3,1.5-3.3,2.2c-0.8,0.5-1.6,1-2.4,1.5
			c-1.6,1-3.1,2-4.7,2.8c-0.4,3.5-3.3,7.1-7.3,8.7c-4.6,1.8-10,1.5-15.3,1.3C71.5,99,69.7,99,68,99c-8.3,0.1-20.1,5.6-20.1,5.6
			c6.6-6,10.7-8.9,20.1-9c1.8,0,3.6,0.1,5.6,0.2c4.9,0.2,10,0.5,13.9-1.1c2.9-1.1,5.2-3.9,5.2-6.2c0-1.6-1-2.8-3-3.7
			c-3.4-1.5-6.3-0.5-9.7,0.7c-2.7,0.9-5.5,1.9-8.8,1.6c-4.3-0.4-8.5-2.1-12.5-3.7c-3.5-1.4-6.9-2.8-10.3-3.3l-0.6-0.1
			c-3.5-0.6-6.8-1.1-10.1,0c-1.5,0.5-2.9,1.5-4.3,2.5c-1.8,1.2-10.1,3.6-12.6,3.9l5.1,21.6C34.7,105.8,45.1,108.8,52.6,112.5z"/>
		<path fill-rule="evenodd" clip-rule="evenodd" fill="#90A6BB" d="M64.1,52.4v4.7h-1.6L64.1,52.4L64.1,52.4z M50.7,57.1h-2.5
			l4.8-14.4h2.5L50.7,57.1L50.7,57.1z M55.5,57.1l4.8-14.4h-2.5L53,57.1H55.5L55.5,57.1z M62.6,42.8l-4.8,14.4h2.5l3.8-11.5v-2.9
			H62.6L62.6,42.8z M43.5,50v-7.2h2.4L43.5,50L43.5,50z M48.1,42.8l-4.7,14v0.4h2.4l4.8-14.4H48.1L48.1,42.8z M41.3,38.4h-2.2v2.2
			v18.7v2.2h2.2h25h2.2v-2.2V40.6v-2.2h-2.2H41.3L41.3,38.4z M82.4,26v4.7h-1.6L82.4,26L82.4,26z M68.9,30.7h-2.5l4.8-14.4h2.5
			L68.9,30.7L68.9,30.7z M73.7,30.7l4.8-14.4H76l-4.8,14.4H73.7L73.7,30.7z M80.8,16.3L76,30.7h2.5l3.8-11.5v-2.9H80.8L80.8,16.3z
			 M61.7,23.6v-7.2h2.4L61.7,23.6L61.7,23.6z M66.4,16.3l-4.7,14v0.4h2.4l4.8-14.4H66.4L66.4,16.3z M57.4,12v2.2v18.7V35h2.2h25h2.2
			v-2.2V14.2V12h-2.2h-25H57.4z M99.6,52.4v4.7H98L99.6,52.4L99.6,52.4z M86.2,57.1h-2.5l4.8-14.4H91L86.2,57.1L86.2,57.1z M91,57.1
			l4.8-14.4h-2.5l-4.8,14.4H91L91,57.1z M98,42.7l-4.8,14.4h2.5l3.8-11.5v-2.9H98L98,42.7z M78.9,49.9v-7.2h2.4L78.9,49.9L78.9,49.9
			z M83.6,42.7l-4.7,14v0.4h2.4l4.8-14.4H83.6L83.6,42.7z M74.6,38.4v2.2v18.7v2.2h2.2h25h2.2v-2.2V40.5v-2.2h-2.2h-25H74.6z"/>
		<path fill-rule="evenodd" clip-rule="evenodd" fill="#728394" d="M107.6,67.7c0,2-2.3,3.5-5.1,3.5H42.2c-2.8,0-5.1-1.6-5.1-3.5
			l0,0c0-2,2.3-3.5,5.1-3.5h60.3C105.3,64.1,107.6,65.7,107.6,67.7L107.6,67.7z"/>
	</g>
</g>
</svg>
