<?xml version="1.0" encoding="utf-8"?>
<!-- Generator: Adobe Illustrator 16.0.0, SVG Export Plug-In . SVG Version: 6.00 Build 0)  -->
<!DOCTYPE svg PUBLIC "-//W3C//DTD SVG 1.1//EN" "http://www.w3.org/Graphics/SVG/1.1/DTD/svg11.dtd">
<svg version="1.1" id="Capa_1" xmlns="http://www.w3.org/2000/svg" xmlns:xlink="http://www.w3.org/1999/xlink" x="0px" y="0px"
	 width="128px" height="128px" viewBox="0 0 128 128" enable-background="new 0 0 128 128" xml:space="preserve">
<g>
	<path fill="#999999" d="M70.905,35.381c5.061-3.404,8.55-10.123,8.55-16.171c0-8.536-6.921-15.456-15.45-15.456
		c-8.532,0-15.455,6.92-15.455,15.456c0,6.048,3.485,12.767,8.55,16.171c-12.104,3.07-21.076,13.577-21.076,21.366
		c0,9.204,55.963,9.204,55.963,0C91.986,48.958,83.011,38.451,70.905,35.381z M64.002,63.648l-7.842-7.838l6.601-15.946h-0.07
		l-2.562-2.94c1.239,0.445,2.532,0.711,3.873,0.711c1.338,0,2.63-0.266,3.864-0.711l-2.563,2.94h-0.064l6.6,15.946L64.002,63.648z"
		/>
	<g>
		<g>
			<g>
				<path fill="#999999" d="M50.38,99.906c1.642,0,2.976-1.898,2.976-3.54c0-1.643-1.337-2.968-2.976-2.968
					c-1.637,0-2.971,1.325-2.971,2.968C47.409,98.008,48.743,99.906,50.38,99.906z"/>
				<path fill="#999999" d="M56.193,101.977c-0.018-0.089-0.041-0.171-0.078-0.252c-0.037-0.06-0.077-0.104-0.113-0.156
					c-0.058-0.072-0.104-0.14-0.171-0.204c-0.052-0.043-0.11-0.068-0.175-0.104c-0.057-0.037-0.11-0.083-0.173-0.111
					c-0.102-0.038-2.469-0.878-4.645-0.992l-0.295,0.597h-0.008l0.789,6.157l-0.939,1.64l-0.939-1.64l0.793-6.157h-0.01
					l-0.299-0.597c-2.173,0.114-4.537,0.954-4.64,0.992c-0.07,0.028-0.123,0.074-0.181,0.111c-0.061,0.037-0.12,0.062-0.17,0.104
					c-0.069,0.064-0.116,0.134-0.169,0.204c-0.043,0.053-0.078,0.093-0.109,0.149c-0.043,0.082-0.062,0.17-0.079,0.253
					c-0.017,0.053-0.05,0.1-0.055,0.154l-0.951,8.457c-0.07,0.642,0.392,1.229,1.036,1.301c0.046,0.003,0.085,0.003,0.137,0.003
					c0.589,0,1.095-0.447,1.163-1.042l0.854-7.701c0.1-0.029,0.21-0.063,0.324-0.096v8.015l-0.935,11.62
					c-0.06,0.773,0.517,1.448,1.294,1.516c0.042,0.003,0.073,0.003,0.116,0.003c0.726,0,1.345-0.557,1.399-1.294l0.848-10.503
					c0.174,0.077,0.363,0.126,0.566,0.126c0.209,0,0.394-0.049,0.571-0.126l0.847,10.503c0.056,0.737,0.675,1.294,1.4,1.294
					c0.042,0,0.077,0,0.115-0.003c0.777-0.067,1.353-0.748,1.297-1.516l-0.939-11.62v-8.015c0.121,0.033,0.232,0.066,0.331,0.096
					l0.856,7.701c0.065,0.6,0.575,1.042,1.162,1.042c0.041,0,0.089,0,0.132-0.003c0.648-0.072,1.108-0.659,1.037-1.301l-0.941-8.453
					C56.244,102.07,56.209,102.026,56.193,101.977z"/>
			</g>
			<g>
				<path fill="#999999" d="M64.002,99.906c1.638,0,2.965-1.898,2.965-3.54c0-1.643-1.327-2.968-2.965-2.968
					c-1.642,0-2.974,1.325-2.974,2.968C61.028,98.008,62.361,99.906,64.002,99.906z"/>
				<path fill="#999999" d="M69.813,101.977c-0.017-0.089-0.043-0.171-0.079-0.252c-0.035-0.06-0.069-0.104-0.112-0.156
					c-0.059-0.072-0.102-0.14-0.17-0.204c-0.049-0.043-0.113-0.068-0.178-0.104c-0.058-0.037-0.102-0.083-0.17-0.111
					c-0.11-0.038-2.473-0.878-4.643-0.992l-0.297,0.597h-0.013l0.792,6.157l-0.942,1.647l-0.945-1.642l0.798-6.158h-0.017
					l-0.292-0.602c-2.172,0.114-4.537,0.954-4.645,1.001c-0.066,0.025-0.119,0.069-0.175,0.108c-0.058,0.031-0.125,0.061-0.17,0.104
					c-0.069,0.06-0.125,0.134-0.173,0.199c-0.037,0.053-0.079,0.097-0.113,0.156c-0.037,0.077-0.057,0.17-0.085,0.252
					c-0.006,0.051-0.04,0.094-0.047,0.149l-0.942,8.456c-0.069,0.642,0.393,1.229,1.042,1.301c0.043,0.003,0.086,0.003,0.132,0.003
					c0.59,0,1.102-0.447,1.163-1.042l0.857-7.701c0.097-0.029,0.211-0.063,0.318-0.096v8.015l-0.934,11.622
					c-0.059,0.771,0.518,1.446,1.299,1.514c0.037,0.003,0.075,0.003,0.112,0.003c0.728,0,1.339-0.557,1.401-1.294l0.845-10.503
					c0.174,0.077,0.364,0.127,0.572,0.127c0.205,0,0.394-0.05,0.566-0.127l0.85,10.503c0.062,0.737,0.672,1.294,1.402,1.294
					c0.036,0,0.074,0,0.114-0.003c0.781-0.067,1.352-0.748,1.294-1.514l-0.934-11.622v-8.015c0.116,0.033,0.22,0.066,0.32,0.096
					l0.854,7.701c0.068,0.6,0.577,1.042,1.166,1.042c0.041,0,0.089,0,0.132-0.003c0.644-0.072,1.109-0.659,1.035-1.301l-0.94-8.453
					C69.861,102.07,69.826,102.026,69.813,101.977z"/>
			</g>
			<g>
				<path fill="#999999" d="M77.625,99.906c1.635,0,2.969-1.898,2.969-3.54c0-1.643-1.334-2.968-2.969-2.968
					c-1.648,0-2.971,1.325-2.971,2.968C74.654,98.008,75.98,99.906,77.625,99.906z"/>
				<path fill="#999999" d="M83.439,101.977c-0.027-0.089-0.051-0.171-0.084-0.252c-0.028-0.06-0.074-0.104-0.114-0.156
					c-0.055-0.072-0.098-0.14-0.17-0.204c-0.054-0.043-0.106-0.068-0.169-0.104c-0.061-0.037-0.111-0.083-0.174-0.111
					c-0.111-0.038-2.471-0.878-4.647-0.992l-0.294,0.597h-0.016l0.792,6.157l-0.938,1.64l-0.938-1.64l0.79-6.157h-0.016
					l-0.294-0.597c-2.173,0.114-4.53,0.954-4.646,0.992c-0.062,0.028-0.119,0.074-0.172,0.111c-0.059,0.037-0.121,0.062-0.17,0.104
					c-0.075,0.064-0.122,0.134-0.173,0.204c-0.042,0.053-0.08,0.093-0.111,0.149c-0.04,0.082-0.063,0.17-0.087,0.253
					c-0.006,0.053-0.043,0.1-0.051,0.154l-0.938,8.449c-0.064,0.643,0.395,1.236,1.038,1.302c0.044,0.007,0.085,0.007,0.128,0.007
					c0.593,0,1.104-0.447,1.167-1.043l0.857-7.704c0.097-0.027,0.212-0.06,0.325-0.099v8.019l-0.928,11.619
					c-0.069,0.774,0.512,1.455,1.29,1.518c0.039,0.005,0.076,0.005,0.11,0.005c0.728,0,1.345-0.554,1.405-1.301l0.845-10.498
					c0.175,0.082,0.366,0.128,0.572,0.128c0.202,0,0.393-0.046,0.568-0.128l0.845,10.498c0.062,0.739,0.679,1.301,1.403,1.301
					c0.035,0,0.072,0,0.113-0.005c0.78-0.068,1.347-0.743,1.298-1.518l-0.939-11.619v-8.019c0.118,0.039,0.226,0.071,0.325,0.099
					l0.854,7.704c0.068,0.599,0.579,1.043,1.167,1.043c0.038,0,0.089,0,0.133-0.007c0.643-0.065,1.104-0.652,1.038-1.302
					l-0.936-8.449C83.482,102.07,83.444,102.026,83.439,101.977z"/>
			</g>
		</g>
		<path fill="#999999" d="M125.062,109.25c0.06-1.66-0.217-3.341-0.832-4.947l2.566-1.597l-2.519-4.03l-2.563,1.604
			c-1.177-1.259-2.561-2.236-4.072-2.915l0.671-2.942l-4.629-1.07l-0.679,2.95c-1.656-0.066-3.342,0.214-4.944,0.831l-1.604-2.571
			l-4.021,2.517l1.602,2.567c-1.258,1.169-2.239,2.559-2.913,4.076l-2.949-0.685l-1.069,4.631l2.947,0.684
			c-0.06,1.656,0.21,3.33,0.835,4.941l-2.57,1.604l2.512,4.025l2.574-1.603c1.163,1.262,2.558,2.239,4.073,2.914l-0.679,2.944
			l4.628,1.068l0.68-2.944c1.659,0.065,3.337-0.212,4.945-0.836l1.597,2.571l4.025-2.519l-1.6-2.572
			c1.259-1.168,2.244-2.563,2.915-4.077l2.948,0.684l1.063-4.628L125.062,109.25z M117.078,116.033
			c-3.993,2.494-9.256,1.278-11.753-2.715c-2.496-3.992-1.279-9.254,2.707-11.75c3.995-2.495,9.263-1.285,11.76,2.712
			C122.289,108.279,121.066,113.544,117.078,116.033z"/>
		<path fill="#999999" d="M15.447,93.35C6.928,93.35,0,100.279,0,108.797c0,8.522,6.928,15.447,15.447,15.447
			c8.517,0,15.447-6.925,15.447-15.447C30.897,100.279,23.964,93.35,15.447,93.35z M22.063,119.564l-0.604-1.041l-0.596,0.342
			l0.592,1.032c-1.7,0.931-3.609,1.496-5.659,1.552v-1.227h-0.695v1.227c-2.05-0.056-3.967-0.621-5.662-1.552l0.597-1.032
			l-0.598-0.342l-0.604,1.048c-1.696-1.04-3.113-2.459-4.153-4.151l1.049-0.605l-0.349-0.598l-1.033,0.591
			c-0.926-1.699-1.495-3.605-1.553-5.659h1.23v-0.695h-1.23c0.063-2.051,0.628-3.963,1.554-5.665l1.027,0.598l0.348-0.602
			l-1.044-0.605c1.041-1.689,2.451-3.105,4.146-4.148l0.611,1.049l0.596-0.346l-0.595-1.03c1.699-0.928,3.612-1.499,5.662-1.552
			v1.225h0.284l-1.88,3.758h1.252v7.268l-3.898,2.246l-0.627-1.084l-2.393,3.622l4.333-0.255l-0.629-1.084l4.246-2.452
			c0.024-0.018,0.028-0.06,0.058-0.077c0.076-0.058,0.104-0.125,0.158-0.206c0.046-0.08,0.084-0.14,0.096-0.231
			c0.003-0.032,0.035-0.057,0.035-0.089v-7.663h1.249l-1.875-3.753h0.276l0.003-1.229c2.05,0.058,3.96,0.623,5.663,1.553
			l-0.604,1.034l0.606,0.34l0.603-1.047c1.689,1.039,3.107,2.457,4.147,4.149l-1.043,0.608l0.351,0.597l1.027-0.597
			c0.925,1.704,1.493,3.613,1.553,5.663h-1.225v0.693h1.225c-0.06,2.055-0.628,3.966-1.553,5.667l-1.027-0.599l-0.348,0.605
			l1.044,0.602C25.172,117.108,23.752,118.523,22.063,119.564z"/>
	</g>
	<polygon fill="#999999" points="65.023,72.509 65.023,68.76 62.973,68.76 62.973,72.509 14.426,72.509 14.426,88.848 
		16.468,88.848 16.468,74.554 62.973,74.554 62.973,88.848 65.023,88.848 65.023,74.554 111.533,74.554 111.533,88.848 
		113.58,88.848 113.58,72.509 	"/>
</g>
</svg>
