<?xml version="1.0" ?><!DOCTYPE svg  PUBLIC '-//W3C//DTD SVG 1.1//EN'  'http://www.w3.org/Graphics/SVG/1.1/DTD/svg11.dtd'><svg enable-background="new 0 0 128 128" height="128px" id="Layer_1" version="1.1" viewBox="0 0 128 128" width="128px" xml:space="preserve" xmlns="http://www.w3.org/2000/svg" xmlns:xlink="http://www.w3.org/1999/xlink"><g><g><g><g><g><polygon fill="#FFECB3" points="125.5,49.3 67.7,92 45,61.3 102.8,18.6      "/><path d="M54.961,55.583c-0.137,0.185-0.289,0.352-0.43,0.531l18.912-13.962       c-1.238,0.125-2.525,0.039-3.908-0.367c-0.152-0.044-0.286-0.104-0.416-0.168l-14.89,11       C55.263,53.18,55.864,54.367,54.961,55.583z" fill="#37474F"/><path d="M126.7,48.4L104,17.7c-0.5-0.7-1.4-0.8-2.1-0.3L77.856,35.163c0.762-0.056,1.532-0.027,2.351,0.167       c0.546,0.129,0.968,0.469,1.253,0.903L102.5,20.7L123.4,49L68,89.9L50.702,66.478c-0.029,0.326-0.071,0.657-0.14,0.999       c-0.187,0.936-0.889,1.447-1.685,1.591L66.5,92.9c0.3,0.399,0.7,0.6,1.2,0.6c0.3,0,0.6-0.1,0.899-0.3L126.4,50.5       c0.3-0.3,0.6-0.6,0.6-1S126.9,48.7,126.7,48.4z" fill="#37474F"/></g><g><path d="M96.3,47.2c4.5,6.1,3.2,14.7-2.899,19.2C87.3,70.9,78.7,69.6,74.2,63.5C69.7,57.4,71,48.8,77.1,44.3       C83.2,39.8,91.8,41,96.3,47.2z" fill="#FFAB00"/><path d="M85.2,70.5c-4.8,0-9.4-2.3-12.3-6.2C68,57.6,69.4,48,76.2,43c2.6-1.9,5.8-3,9-3       c4.8,0,9.399,2.3,12.3,6.2c2.4,3.3,3.4,7.3,2.8,11.3c-0.6,4-2.7,7.6-6,10C91.6,69.5,88.5,70.5,85.2,70.5z M85.2,43.1       c-2.601,0-5.101,0.8-7.3,2.4c-5.4,4-6.601,11.7-2.601,17.1c2.3,3.1,6,4.9,9.9,4.9c2.6,0,5.2-0.8,7.3-2.4       c2.6-1.899,4.3-4.8,4.8-8c0.5-3.2-0.3-6.5-2.2-9.1C92.7,44.9,89.2,43.1,85.2,43.1z" fill="#37474F"/></g><g><g><g><path d="M60.4,64c-0.5,0.4-1.4,0.3-1.8-0.3c-0.4-0.6-0.3-1.4,0.3-1.8s1.4-0.3,1.8,0.3         C61.1,62.8,61,63.6,60.4,64z" fill="#37474F"/><path d="M59.6,64.8c-0.6,0-1.1-0.3-1.5-0.7c-0.6-0.8-0.4-2,0.4-2.5c0.8-0.6,1.9-0.4,2.5,0.4         c0.3,0.4,0.4,0.9,0.3,1.4c-0.1,0.5-0.3,0.9-0.7,1.2C60.4,64.7,60,64.8,59.6,64.8z M59.6,62.2c-0.2,0-0.3,0.1-0.5,0.2         c-0.3,0.2-0.4,0.8-0.2,1.1c0.2,0.3,0.8,0.4,1.1,0.2c0.2-0.1,0.3-0.3,0.3-0.5c0-0.2,0-0.4-0.2-0.6         C60.1,62.3,59.9,62.2,59.6,62.2z" fill="#37474F"/></g><g><path d="M65.8,71.3c-0.6,0.4-1.4,0.3-1.8-0.3s-0.3-1.4,0.3-1.8c0.601-0.4,1.4-0.3,1.8,0.3         C66.5,70.1,66.4,70.9,65.8,71.3z" fill="#37474F"/><path d="M65,72c-0.6,0-1.1-0.3-1.5-0.7C63.2,70.9,63.1,70.4,63.2,69.9c0.1-0.5,0.3-0.9,0.7-1.101         c0.7-0.6,1.9-0.399,2.5,0.4c0.3,0.399,0.399,0.8,0.3,1.3C66.6,71,66.4,71.4,66,71.7C65.8,71.9,65.4,72,65,72z M65,69.5         c-0.2,0-0.3,0.1-0.5,0.2c-0.2,0.1-0.3,0.3-0.3,0.5s0,0.399,0.1,0.6c0.2,0.3,0.8,0.4,1.101,0.2c0.199-0.1,0.3-0.3,0.3-0.5         s0-0.4-0.101-0.6C65.5,69.6,65.3,69.5,65,69.5z" fill="#37474F"/></g><g><path d="M71.1,78.6C70.5,79,69.7,78.9,69.3,78.3C68.9,77.7,69,76.9,69.6,76.5c0.601-0.4,1.4-0.3,1.801,0.3         C71.8,77.3,71.7,78.1,71.1,78.6z" fill="#37474F"/><path d="M70.4,79.3C69.8,79.3,69.3,79,69,78.6c-0.3-0.399-0.4-0.899-0.3-1.3c0.1-0.5,0.3-0.899,0.7-1.2         c0.699-0.6,1.899-0.399,2.5,0.4c0.3,0.4,0.399,0.8,0.3,1.3c-0.101,0.5-0.3,0.9-0.7,1.2C71.1,79.2,70.8,79.3,70.4,79.3z          M70.4,76.7c-0.2,0-0.301,0.1-0.5,0.2C69.7,77,69.6,77.2,69.6,77.4c0,0.199,0,0.399,0.101,0.6c0.3,0.3,0.8,0.4,1.1,0.2         c0.2-0.101,0.3-0.3,0.3-0.5s0-0.4-0.1-0.601C70.9,76.8,70.6,76.7,70.4,76.7z" fill="#37474F"/></g></g><g><g><path d="M100.8,34.2c-0.6,0.4-1.399,0.3-1.8-0.3s-0.3-1.4,0.2-1.8c0.6-0.4,1.399-0.3,1.8,0.3         C101.5,32.9,101.4,33.7,100.8,34.2z" fill="#37474F"/><path d="M100.1,34.9c-0.6,0-1.1-0.3-1.399-0.7c-0.3-0.4-0.4-0.9-0.3-1.3c0.1-0.5,0.3-0.9,0.699-1.2         c0.801-0.6,2-0.4,2.5,0.4c0.601,0.8,0.4,1.9-0.399,2.5C100.8,34.8,100.5,34.9,100.1,34.9z M100.1,32.3         c-0.199,0-0.3,0.1-0.5,0.2c-0.199,0.1-0.3,0.3-0.3,0.5s0,0.4,0.2,0.6c0.3,0.3,0.8,0.4,1.1,0.2c0.301-0.3,0.4-0.8,0.2-1.1         C100.6,32.4,100.3,32.3,100.1,32.3z" fill="#37474F"/></g><g><path d="M106.2,41.4c-0.601,0.4-1.4,0.3-1.8-0.3c-0.4-0.6-0.301-1.4,0.3-1.8c0.6-0.4,1.399-0.3,1.8,0.3         S106.8,41,106.2,41.4z" fill="#37474F"/><path d="M105.4,42.2c-0.601,0-1.101-0.3-1.4-0.7s-0.4-0.9-0.3-1.3c0.1-0.5,0.3-0.9,0.7-1.2         c0.8-0.6,1.899-0.4,2.5,0.4c0.6,0.8,0.399,1.9-0.4,2.5C106.2,42.1,105.8,42.2,105.4,42.2z M105.4,39.6         c-0.2,0-0.301,0.1-0.5,0.2c-0.2,0.1-0.301,0.3-0.301,0.5c0,0.2,0,0.4,0.101,0.6c0.2,0.3,0.8,0.4,1.1,0.2         c0.4-0.3,0.4-0.8,0.2-1.1C105.9,39.7,105.7,39.6,105.4,39.6z" fill="#37474F"/></g><g><path d="M111.6,48.7c-0.6,0.4-1.399,0.3-1.8-0.2c-0.399-0.6-0.3-1.4,0.3-1.8c0.601-0.4,1.4-0.3,1.801,0.3         C112.3,47.4,112.2,48.3,111.6,48.7z" fill="#37474F"/><path d="M110.8,49.4c-0.6,0-1.1-0.3-1.399-0.7c-0.601-0.8-0.4-2,0.399-2.5c0.7-0.6,1.9-0.4,2.5,0.4         c0.601,0.8,0.4,1.9-0.399,2.5C111.6,49.3,111.2,49.4,110.8,49.4z M110.8,46.9c-0.2,0-0.3,0.1-0.5,0.1         c-0.399,0.3-0.399,0.8-0.2,1.1c0.2,0.3,0.801,0.4,1.101,0.1c0.3-0.3,0.399-0.8,0.2-1.1C111.3,47,111.1,46.9,110.8,46.9z" fill="#37474F"/></g></g></g><g><path d="M91.7,65.8l-1.8-2.4c-1.4,1-3.2,1.6-4.5,1.6L84.8,63c1.3,0,2.9-0.5,4.2-1.5c1.7-1.3,2.1-3.1,1.1-4.5       c-1-1.3-2.5-1.5-4.899-0.9C82,56.9,79.7,57,78.1,54.9c-1.5-2-1.199-4.6,0.801-6.6L77.1,45.8l1.5-1.1l1.7,2.3       c1.5-1,2.8-1.4,3.8-1.5l0.601,2C84,47.6,82.6,47.8,81,48.9c-1.8,1.4-1.7,3-1,4c0.9,1.2,2.3,1.2,5,0.6c3.2-0.8,5.4-0.5,7,1.6       c1.4,1.9,1.4,4.7-0.8,6.9l1.8,2.5L91.7,65.8z" fill="#37474F"/></g></g></g><g><g><g><polyline fill="#FFECB3" points="21,80.4 32,77.7 44.5,39.2 66.9,32.5      "/><path d="M21,81.9c-0.7,0-1.3-0.5-1.5-1.101c-0.2-0.8,0.3-1.6,1.1-1.8l10.2-2.5l12.3-37.7c0.2-0.5,0.5-0.8,1-1       l22.4-6.7c0.8-0.2,1.6,0.2,1.9,1c0.3,0.8-0.2,1.6-1,1.9l-21.7,6.4L33.4,78.2c-0.2,0.5-0.6,0.899-1.1,1l-11,2.6       C21.2,81.9,21.1,81.9,21,81.9z" fill="#37474F"/></g><g><line fill="none" x1="87.6" x2="66.9" y1="37.3" y2="32.5"/><path d="M87.6,38.8c-0.1,0-0.199,0-0.3,0L66.6,34c-0.8-0.2-1.3-1-1.1-1.8c0.2-0.8,1-1.3,1.8-1.1L87.9,35.9       c0.8,0.2,1.3,1,1.1,1.8C88.9,38.3,88.2,38.8,87.6,38.8z" fill="#37474F"/></g><g><polyline fill="#FFECB3" points="56.9,45.6 68.9,42.4 82.3,43.4 88,37.7      "/><path d="M56.9,47.1c-0.7,0-1.3-0.4-1.4-1.1c-0.2-0.8,0.3-1.6,1.1-1.8l12-3.2c0.2,0,0.301-0.1,0.5,0L81.7,41.9       l5.3-5.2c0.6-0.6,1.5-0.6,2.1,0c0.601,0.6,0.601,1.5,0,2.1l-5.8,5.7c-0.3,0.3-0.7,0.5-1.2,0.4l-13.1-1L57.2,47       C57.1,47.1,57,47.1,56.9,47.1z" fill="#37474F"/></g><g><polyline fill="#FFECB3" points="29.5,98.9 49.8,88.3 63.8,75.8 64,45.7      "/><path d="M29.5,100.4c-0.5,0-1.1-0.301-1.3-0.801c-0.4-0.699-0.1-1.6,0.6-2L49,87.1l13.4-12L62.6,45.7       c0-0.8,0.7-1.5,1.5-1.5l0,0c0.8,0,1.5,0.7,1.5,1.5L65.4,75.8c0,0.4-0.2,0.8-0.5,1.101l-14,12.5c-0.1,0.1-0.2,0.199-0.3,0.199       L30.3,100.2C30,100.4,29.8,100.4,29.5,100.4z" fill="#37474F"/></g><g><line fill="none" x1="53.5" x2="56.9" y1="63.8" y2="45.6"/><path d="M53.5,65.3c-0.1,0-0.2,0-0.3,0c-0.8-0.1-1.4-0.9-1.2-1.7l3.3-18.1c0.1-0.8,0.9-1.4,1.7-1.2       c0.8,0.1,1.4,0.9,1.2,1.7L55,64C54.9,64.8,54.2,65.3,53.5,65.3z" fill="#37474F"/></g><g><polygon fill="#B0BEC5" points="15.4,109.4 2.5,81.4 19.3,73.7 32.2,101.7      "/><path d="M14.6,111.4L0.5,80.7l19.5-9l14.1,30.7L14.6,111.4z M4.5,82.2l11.6,25.2l14.1-6.5L18.6,75.7L4.5,82.2z" fill="#37474F"/></g></g></g></g><g><polygon fill="#FFAB00" points="17.4,96.7 11.5,90.8 17.4,84.9 23.3,90.8   "/><path d="M17.4,98.2L17.4,98.2c-0.4,0-0.8-0.2-1.1-0.4L10.4,91.9c-0.6-0.601-0.6-1.5,0-2.101l5.9-5.899    c0.6-0.601,1.5-0.601,2.1,0l5.9,5.899c0.3,0.3,0.4,0.7,0.4,1.101c0,0.399-0.2,0.8-0.4,1.1l-5.9,5.9C18.2,98,17.8,98.2,17.4,98.2z     M13.7,90.8l3.8,3.8l3.8-3.8L17.4,87L13.7,90.8z" fill="#37474F"/></g></g></svg>